<?xml version="1.0" encoding="UTF-8"?>
<svg id="a" data-name="Layer 1" xmlns="http://www.w3.org/2000/svg" viewBox="0 0 1024 1024">
  <defs>
    <style>
      .b {
        fill: none;
      }

      .b, .c, .d {
        stroke-width: 0px;
      }

      .c {
        fill: #091114;
      }

      .d {
        fill: none;
      }
    </style>
  </defs>
  <path class="b" d="m376,1024H0C0,682.67,0,341.33,0,0c341.33,0,682.67,0,1024,0,0,341.33,0,682.67,0,1024-203.67,0-407.33,0-611,0-.22-.58-.39-1.19-.67-1.74-1.6-3.2-3.12-6.45-4.86-9.58-2.01-3.62-1.64-4.68,2.32-4.91,15.69-.94,31.37-2,47.07-2.57,8.58-.31,17.21.06,25.79.56,8.27.48,16.46-.81,24.82.22,8.56,1.06,17.56-.97,26,.46,5.89,1,11.13,1.21,16.85-.1,5.3-1.21,10.83-2.02,16.26-1.98,17.46.12,34.92.73,52.39,1.13,2.16.05,4.34-.17,6.49.01,11.23.95,22.46,1.93,33.67,3.06,1.86.19,3.66,1.1,5.43,1.83,3.26,1.34,6.47,2.8,9.7,4.21l-.05.24.15-.11c.22-1.74.1-3.61.7-5.2,3.74-9.98,7.64-19.9,11.5-29.86-6.8,5.95-9.06,14.34-11.55,22.85-1.64-.56-2.95-1-4.37-1.48.98-1.79,1.75-3.21,2.96-5.42-3.13,1.17-5.8,1.65-7.84,3.06-3.47,2.4-7.13,2.34-10.92,1.87-14.66-1.79-29.32-3.59-43.96-5.47-30.67-3.93-61.31-8.17-92.03-11.75-10.22-1.19-20.64-.5-30.94-1.11-15.77-.93-31.5-2.87-47.27-3.25-23.15-.55-45.47-5.67-67.86-10.6-8.75-1.93-17.37-4.47-26.12-6.39-9.65-2.12-19.57-3.21-29.04-5.91-16.22-4.62-31.1-12.53-45.81-20.66-18.51-10.22-34.88-24.02-54.59-32.25-10.5-4.38-20.96-7.2-32.18-2.92-1.27.48-2.68.62-4.02.91-.15-.45-.3-.9-.45-1.34,4.3-4.71,10.07-6.11,16.97-6.13-7.64-1.7-14.07.43-20.49,2.83-1.64.61-3.38.98-5.08,1.46,0,0,.07.13.07.13-.13-.38-.49-.98-.36-1.11,4.63-4.7,9.83-8.38,16.8-8.08,3.44.15,6.86.81,10.28,1.23.52.15,1.04.3.5.14.54.08-.04,0-.62-.09-12.85-5.25-23.96.19-34.62,6.25-7.51,4.27-12.05,11.8-15.91,19.23-6.45,12.41-14.29,24.31-16.19,38.66-.31,2.3-.83,4.56-1.41,7.66-1.04-1.16-1.48-1.56-1.8-2.04-7.11-10.61-14.23-21.21-21.32-31.84-11.35-17.02-26.89-28.51-46.45-34.63,2.73,1.96,5.46,3.92,8.19,5.88-.16.43-.32.85-.48,1.28-5.83-.63-11.66-1.31-17.5-1.87-1.2-.12-2.74-.24-3.6.37-1.5,1.08-2.6,2.72-4.14,4.44,1.65,1.23,3.67,2.74,5.18,3.87-.51,3.71-5.03,5.37-3.59,9.91.3.95-1.65,2.63-2.57,3.95-.03.05-.26-.03-.4-.06.04.11.08.22.25.72,14.51,1.48,29.17,2.98,43.83,4.48,0,.73-.02,1.46-.02,2.2-17.76,1.43-35.52,2.85-52.94,4.26-.09,1.14-.2,2.62-.32,4.23-1.36-.66-2.37-1.14-3.13-1.51-.29,1.39-.63,2.65-.8,3.93-.36,2.8-.62,5.61-.92,8.42,0,0-.06-.08-.06-.08,1.82,4.66-1.63,10.66,3.05,14.08-.77,2.24-2.06,4.31-2.01,6.34.05,2.2,1.36,4.36,2.2,6.74.64-.05,1.7-.38,2.58-.12.76.22,1.78,1.08,1.83,1.73.06.74-.66,2.05-1.31,2.25-2.05.66-4.23.91-6.36,1.33-.57.11-1.12.3-1.68.46.37.36.73.73,1.11,1.09,1.76,1.66,3.53,3.31,5.42,5.08-.75.85-1.29,1.68-2.02,2.26-1.33,1.06-1.08,6.42.53,6.89,4.55,1.35,9.17,2.48,13.75,3.73.63.17,1.66.45,1.73.84.76,3.71,3.91,1.33,5.78,2.24,1.21.58,3.5-.83,4.52-.15,4.67,3.06,9.52-.11,14.27.58,1.25.18,2.29.03,3.72.74,1.52.75,3.5,2.84,5.76.4.62-.67,2.79-.26,4.11.14,4.98,1.5,10.51,2.38,15.21,2.49,6.21.16,12.06,2.88,18.3,1.86,2.74-.45,6.54-1.24,8.21.13,3.05,2.5,5.67.89,8.49.99,1.59.06,4.52.61,4.52.96.01,3.68,2.39,2.79,4.59,2.94,5.94.41,11.63-.67,17.9,1.9,6.44,2.64,14.49,1.38,21.83,1.77,2.06.11,4.13-.1,6.19-.03,6.37.21,12.74.52,19.12.71,7.03.21,14.07.2,21.09.54,10.45.51,20.88,1.56,31.34,1.81,9.23.21,18.48-.58,27.72-.52,7.23.04,14.45.78,21.68,1.07,15.66.64,31.32,1.15,46.97,1.79,5.98.24,11.94.7,17.91,1.06Zm-353.21-42.22c.07.04.15.09.22.13-.1,0-.21.01-.31.02.03.05.06.09.09.14,0-.09,0-.19,0-.28Zm129.82-310.42c.16-.02.31-.04.47-.06-.04,0-.07.02-.11.02-.16.03-.31.05-.47.08l.08-.31s.02.27.02.27ZM500.1,144.84c.27.43.55.85.82,1.28,3.03,5.62,6.84,10.53,12.65,13.97-1.02-2.54-1.92-4.77-2.81-7,.34-.15.68-.3,1.01-.46,3.37,4.26,6.83,8.46,10.09,12.8,3.97,5.29,10.08,1.53,14.82,3.63-8.58-7.6-17.15-15.19-26.19-23.2h5.6c.01.13,0,.26.05.38.03.07.14.1.21.15-.12-.14-.25-.28-.37-.42-.38-.83-.76-1.66-1.65-3.61,3.23,1.5,5.44,2.47,7.61,3.54,5.78,2.86,11.54,5.78,17.32,8.65,3.59,1.79,7.23,1.28,10.43-.66,2.63-1.59,4.83-3.92,7.21-5.92l.21-.08s-.13,0-.13,0c-1.57.48-3.13,1.34-4.7,1.35-1.59,0-3.19-.82-4.79-1.28,1.21-1.04,2.28-2.73,3.65-3.01,4.67-.95,8.09-3.29,10.17-7.21-4.88-5.18,2.77-8.38,1.12-13.3-8.39-1.69-16.85,7.34-26.33,1.61,1.21-1.37,2.2-2.51,3.2-3.64-.86-.71-1.57-1.3-2.47-2.04,1.54-1.14,2.81-2.09,4.08-3.04-.11-.22-.23-.44-.34-.67-2.36.74-4.73,1.47-7.91,2.47.45-2.8.75-4.65,1.06-6.59-.88.08-1.63-.06-2.16.22-10.32,5.46-21.43,6.85-32.88,6.31-1.62-.08-3.2-1.05-4.79-1.61.13-.51.27-1.03.4-1.54,2.95,0,5.91.12,8.85-.02,11.67-.56,22.96-1.84,26.91-15.96-4.24,1.3-8.51,3.06-12.95,3.85-4.51.8-9.19.65-13.8.92-.13-.43-.27-.86-.4-1.29,7.56-4.02,18.39-2.96,21.31-12.85-7.97,1.88-15.93,6.4-25.16,6.58,1.1-1.68,2.49-2.69,3.83-3.77.04-.03-.52-.82-.8-1.26l.07.11c-1.51-3.43-3.96-1.84-6-.92-3.02,1.36-5.77,3.36-8.85,4.51-1.56.58-3.59-.12-6.19-.29-3.9,1.63-8.8,3.84-13.82,5.72-2.36.88-4.95,1.11-7.44,1.64l.1.08c-.12-.31-.1-.62.07-.91.13-.24.26-.47.38-.71-.09.27-.18.55-.26.82-3.7,1.29-7.41,2.58-11.11,3.87,0,0,.08.11.08.11.95-1.27,1.72-2.74,2.88-3.75,1.42-1.24,3.17-2.09,4.77-3.11-.14-.5-.28-1-.42-1.5-5.42.47-10.84.94-16.86,1.47.73-1.8,1.18-2.9,2-4.92-2.08,1.19-3.23,2.14-4.55,2.57-4.59,1.48-8.43,5.51-13.86,4.18,0,0,.08.12.08.12.89-1.85,1.48-3.95,2.75-5.5,2.64-3.23,6.56-5.62,6.27-10.57l-.06-.2s0,.32,0,.32c-3.45,2.12-7.04,4.03-10.29,6.42-3.07,2.25-5.72,5.04-8.67,7.46-.68.56-1.83.55-3.28.94.92-2.21,1.51-3.64,2.11-5.08l4.57-4.27c-.45-.33-.9-.66-1.35-.99-1.04,1.79-2.08,3.58-3.13,5.36-11.46-1.29-12.38,8.05-15.19,16.14-1.12-1.82-1.79-2.91-2.6-4.23-.14,1.34.06,2.51-.39,3.29-2.38,4-2.26,7.91-.26,12.02.52,1.07.19,2.56.25,3.86,0,0,.1-.12.1-.12-.48.42-.95.84-1.5,1.32-1.35-3.42-2.68-6.8-4.09-10.38-.21,1.17-.37,2.1-.53,3.02-.37.16-.75.32-1.12.48-2.71-4.91-5.42-9.82-8.38-15.17-.7,2.4-1.22,4.88-2.17,7.19-.83,2.01-.66,6.07-4.63,3.54-1.74,6.77-3.48,13.78-5.39,20.74-.25.91-1.67,2.36-2.04,2.22-1.06-.4-2.5-1.39-2.65-2.33-1.07-6.84-3.02-13.81-2.46-20.56.7-8.52,6.16-15.09,13.18-20.07l-.12-.16.02.28c-6.3,1.9-10.5,6.03-12.91,12.11-.85,2.15-2.13,4.17-2.73,6.38-1.03,3.82-3.34,4.84-7.03,4.36-4.9-.63-10.79,4.33-11.74,9.17-1.25,6.42,2.04,11.18,5.2,16.11,2.89,4.51.09,12.03-4.97,13.6,4.65,4.94,3.87,7.49-3.41,10.54,1.79.29,3.65,1.21,4.95.69,4.96-1.98,8.87-1.69,11.51,3.56.3.59,1.6.6,2.09,1.17.92,1.09,1.6,2.39,2.37,3.61-.3.33-.6.66-.89.98-4.96-3.55-9.52-8.4-16.01-6.28,0,2.17.19,3.72-.05,5.19-.26,1.58-.94,3.08-1.44,4.62l-2.33,1.8c.19.18.38.35.57.53.55-.81,1.1-1.62,1.66-2.44,7.06-.32,13.98.43,20.02,4.37,4.05,2.65,7.88,5.72,11.38,9.05,1.12,1.06.88,3.54,1.26,5.37-1.63-.18-3.36-.08-4.87-.6-6.76-2.33-13.37-5.58-20.51-2.69,2.71.85,5.63,1.65,8.45,2.71.73.28,1.17,1.35,1.74,2.06-.73.46-1.41,1.21-2.19,1.33-2.6.38-5.24.54-7.9.78.48.43.93.83,1.89,1.69-1.24.09-2.1.41-2.72.16-4.51-1.82-8.56-.65-12.89,1.08-3.19,1.27-6.89,1.57-10.38,1.68-5.8.18-14.85,5.99-16.15,11.65-1.72,7.51-2.7,15.2-4,22.81,2.67-3.83,4.62-7.91,6.72-11.92.39-.74,1.39-1.17,2.11-1.74.47.93,1.27,1.84,1.33,2.8.07,1.1-.63,2.22-.79,3.37-1.77,12.04-5.85,23.94.63,36.09,3.66,6.86,5.51,14.66,8.58,21.87,1.44,3.36,3.83,6.33,5.82,9.45,1.69,2.66,3.72,5.15,5.07,7.96,2,4.15,3.24,8.54,1,13.3-3.94-1.07-5.09-3.75-5.36-7.1-4.59,1.27-3.97-4-6.99-5.92v6.14c-4.42-2.34-7.88-4.17-10.74-5.69-.27,3.8-.6,8.39-.94,13.14h-3.49c.3,1.04.68,1.82.74,2.63.54,6.87,8.7,11.48,5.79,19.41-.11.31.81.96,1.18,1.5,4.45,6.52,3.95,12.79-.22,19.41-6.65,10.55-12.38,21.56-13.16,33.72.19-.29.69-1.07,1.08-1.69,1.28,2.24,2.42,4.24,3.57,6.24,4.12-9.74,7.83-18.58,15.3-25.26,3.13-2.8,5.77-2.38,7.22,1.56.61,1.67,1.09,3.66.78,5.34-2.68,14.33-7.58,27.55-20.21,36.26-3.04,2.1-3.95,4.3-2.72,7.52,1.18,3.11.36,5.57-2.2,7.47-6.06,4.5-12.36,8.36-20.33,8.42-1.38.01-2.76,1.33-4.13,2.04,1.4.83,2.72,2.17,4.21,2.39,5.08.77,10.21,1.26,15.34,1.61,1.33.09,3.17-.28,4-1.16,2.1-2.25,4.36-1.81,6.84-1.29,5.12,1.08,8.21-1.26,8.69-6.42.1-1.08.09-2.84.66-3.09,5.14-2.21,4.38-6.85,5.53-11.78-1.65.82-2.42,1.46-3.26,1.55-.84.09-2.13-.09-2.52-.64-.56-.79-1.02-2.41-.59-3.02,4.09-5.77,8.77-11,14.77-14.81.5.18,1,.37,1.49.55-.67,4.13-1.34,8.26-1.81,11.21,2.79,1.3,5.46,1.78,6.88,3.37,2.55,2.86-.23,5.09-1.98,7.22-1.47,1.79-3.5,3.32-4.39,5.36-1.81,4.1-2.49,8.75-4.62,12.64-1.76,3.21-4.93,5.66-7.59,8.56-1.1,3.61-1.84,8.15-3.84,12.07-2.23,4.37.41,6.34,2.88,8.61,1.11,1.02,2.65,1.58,4.47,2.62.37-5.11.7-9.63,1.09-15.1,4.99,3.99,9.93,7.35,9.44,13.09-.53,6.2-.97,13.23-8.69,17.36.97-8.77-4.82-11.85-10.88-15.02-1.81,3.19.46,4.64,2.23,6.22,1.27,1.14,2.62,2.18,3.93,3.27,0,0,.06-.05.06-.05-2.83-.13-5.66-.26-8.97-.42-.14.78-.7,2.37-.65,3.95.14,4.47.78,8.94.76,13.41-.02,5.44.52,10.24,4.77,14.54,2.12,2.14,3.69,6.49,3.08,9.31-1.24,5.73-5.89,6.55-10.59,2.72-.5-.4-1.12-.66-2.81-1.63.71,2.31,1.2,3.65,1.54,5.03.64,2.56,2.85,4.69.96,7.86-5.07,8.49-9.94,17.1-14.55,25.84-1.63,3.1-2.3,6.71-3.39,10.1-.65,2.02-1.04,4.15-1.94,6.05-2.21,4.69-6.23,8.24-7.22,13.82-2.09,11.78-8.76,22.63-7.09,35.22.12.94-.59,2.53-1.39,2.96-5.07,2.75-4.93,7.74-5.69,12.38-.35,2.11-.43,4.33-1.18,6.29-2.91,7.57-6.16,15-8.98,22.6-.59,1.6-.33,3.86.31,5.52,3.94,10.26,12.59,16.23,21.17,22.51-3.94,17.13-11.37,32.74-21.22,48.07,2.59.39,4.49.78,6.41.93,10.87.87,19.64,4.51,23.34,16.05,1.08,3.38,3.46,6.41,5.51,9.42,2.31,3.39,3.46,6.85,1.69,10.76-1.14,2.53-.85,4.59.72,6.95,4.27,6.46,7.08,13.42,7.48,21.37.24,4.78,4.4,6.98,8.76,5.14,1.31-.55,2.3-1.85,3.44-2.79,5.46-4.51,7.58-3.9,9.53,3.31,12.31-.49,24.77-.92,37.21-1.61,1.01-.06,2.53-1.75,2.79-2.91,2.06-9.34,5.38-18.73,5.45-28.12.15-20.11-6.34-38.49-18.79-54.56-1.59-2.05-2.9-4.32-4.34-6.49.51-.4,1.02-.8,1.53-1.2,3.92,2.01,6.66,5.44,9.23,8.97,18.87,25.89,23.96,53.73,10.61,84.32,9,0,16.82.19,24.63-.1,2.9-.11,5.73-1.44,8.63-2.04,1-.21,2.11.09,3.17.15-.13,1.07.05,2.33-.46,3.17-1.73,2.88-3.71,5.61-5.58,8.4,3.22,5.83,3.23,5.72,10.24,6.15,3.06.19,6.09.93,10.3,1.6-3.89,2.37-6.83,4.16-9.77,5.95.15.58.31,1.15.46,1.73,60.19-.62,120.58,2.09,179.97-12.27-2.32-.72-4.65-1.32-7.02-1.52-8.08-.67-15.94-.45-23.88,2.28-6.62,2.28-13.77,3.9-20.82.46-7.13-3.48-14.38-6.71-21.51-10.21-4.44-2.18-9.14-4.15-12.98-7.16-3.24-2.54-6.55-2.66-10.12-2.77-1.98-.06-3.99.35-5.96.2-7.88-.62-15.76-1.3-23.62-2.12-3.69-.38-7.66-.41-10.93-1.88-6.8-3.05-12.99-2.56-19.37.81,2.55,4.76,1.56,7.53-3.07,9.07-1.88.63-3.87.92-5.81,1.36-6.2,1.4-7.31.39-6.6-6.1-2.32,1.44-4.2,3.35-6.18,5.13-.68.61-1.7,1.35-2.42,1.22-.62-.11-1.39-1.34-1.48-2.14-.42-3.93-.26-7.56,4.12-9.68,2.82-1.36,5.24-3.51,7.94-5.14,3.13-1.88,3.66-4.04,1.08-6.75-.79-.83-1.75-1.53-2.47-2.41-1.46-1.79-1.73-3.71.36-5.18,2.03-1.43,4.13-2.84,6.39-3.84,8.52-3.75,17.13-7.31,25.7-10.96,3.96-1.69,7.9-3.43,11.85-5.14-10.22.92-20.11,2.61-30.02,4.1-4.51.68-9.07.93-13.61,1.42-3.52.38-6.38-.61-7.65-4.13-1.36-3.76-1.63-7.52,1.64-10.62,1.69-1.6,3.68-2.92,1.17-5.58-.49-.52.16-3.09,1.02-3.7,2.76-1.99,5.69-3.94,8.85-5.15,10.12-3.88,20.44-7.24,30.55-11.17,4.62-1.79,8.84-4.59,13.37-6.65,9.29-4.24,17.49-4.66,26.45,2.7,14.21,11.66,29.55,21.97,44.71,32.43,19.59,13.51,41.8,17.95,65.19,17.45,10.1-.22,20.21-1.57,30.29-1.3,34.41.91,68.72.27,102.84-4.59,10.64-1.51,21.25-3.37,31.79-5.5,8.78-1.77,17.43-4.19,26.14-6.27.83-.2,1.75-.03,2.62-.03-5.84.38-6.9-.49-7.07-6.54-.24-8.49.24-17.03-.52-25.47-.41-4.56-2.38-9.14-4.37-13.36-1.88-4-5.3-7.31-6.97-11.36-1.74-4.22-3.96-8.67-2.93-13.74,3.72,1.06,7,2.79,10.22,2.69,3.81-.12,5.53,1.43,6.7,4.46,3.1,8,6.37,15.94,9.18,24.04,3.99,11.5,7.62,23.13,11.57,35.22,15.52-4.26,31.93-6.41,48.24-4.49-.9-5.97-1.79-11.01-2.35-16.09-.25-2.22.76-4.66.23-6.75-3.33-12.97-6.45-26.02-10.6-38.73-3.39-10.38-6.27-20.46-3.69-31.51.99-4.22,1.06-8.79.78-13.15-.39-5.99,6.18-13.38,12.3-13.18,5.37.17,10.84.77,14.52-4.63.44-.64,2.42-1.04,3.04-.61,3.45,2.35,5.41-.02,8.01-2.22-4.9-3.84-3.26-7.64-.04-11.44.63-.74.89-1.77,1.47-2.57,1.27-1.75,1.09-3.1-.63-4.49-5.16-4.16-9.97-8.8-15.41-12.54-7.81-5.36-18.22-3.88-24.57,3.48-4.63,5.37-8.47,11.42-12.81,17.05-.8,1.04-2.28,1.55-3.45,2.3-.52-1.22-1.05-2.44-1.57-3.66.06-.07.12-.13.18-.2-.03.1-.06.2-.09.3-5.92,9.4-16.21,14.24-23.34,22.41-7.1,8.12-14.48,15.98-21.74,23.96-.42-.19-.84-.39-1.26-.58.08-1.35-.05-2.74.26-4.03,2.81-11.56,10.38-19.91,19.02-27.35,12.79-11.01,23.65-23.68,32.73-37.82,9.53-14.85,15.09-18.1,29.27-15.72.12.02.22.22.33.33v-1.61c-2.44-.54-5.17-1.71-7.88-1.66-10.22.22-16.95,6.43-23.22,13.75-6.98,8.14-14.32,16.01-21.98,23.51-1.93,1.9-5.91,1.51-8.53,2.95-8.3,4.57-17.23,4.51-26.86,4.57,3.86-8.59,10.92-12.09,18.72-14.49-1.25-8.23.18-15.53,4.93-21.78-4.9,1.06-7.15,8.44-14.11,7.67.59-2.22,1.01-3.81,1.43-5.39,2.18-1.85,5-3.31,6.41-5.63,5.33-8.74,12.95-13.2,23.02-14.05,2.67-.23,5.28-1.16,8.23-1.85-8.6-10.76-15.81-8.45-21-2.41-6.3,7.34-11.1,15.98-16.55,24.06-3.81,5.31-7.92,5.43-12.13.86-5.01-5.45-6.9-12.23-9.23-18.93-1.85-5.32-1.62-12.29-9.48-13.62-.56-.09-1.2-1.91-1.18-2.91.34-12.29.7-24.58,1.25-36.86.26-5.64.96-11.25,1.46-16.88-.72-.17-1.45-.34-2.17-.51-3.01,7.75-6.81,15.3-8.83,23.31-2.53,10-3.51,20.39-5.38,30.57-.28,1.52-1.76,2.82-2.68,4.22-.64-1.47-1.8-2.93-1.83-4.42-.09-4.11.6-8.24.42-12.33-.24-5.59-1.29-11.15-1.44-16.74-.15-5.66-.49-11.19.48-17.06,2.01-12.21,1.92-24.77,2.46-37.2.28-6.31.05-12.64.05-18.96-.55-.01-1.11-.03-1.66-.04-.64,6.58-.88,13.24-1.99,19.74-2.98,17.53-6.06,35.05-9.72,52.45-.84,4.01-.73,9-4.96,11.83-4.21,2.82-4.19,4.63-1.78,9.09,3.11,5.75,5.6,11.85,8.08,17.92.4.98-.41,2.65-1.02,3.82-.99,1.92-2.42,3.61-3.38,5.54-2.33,4.67-2.01,10.98-8.33,13.12l.11.11c.71-3.5,1.38-7,2.16-10.48.97-4.3,2.03-8.59,3.24-13.62-3.94,4.33-6.78,8-10.18,11.03-2.51,2.23-2.99,4.01-1.54,7.05,1.57,3.26,2.9,6.79,3.45,10.34.41,2.63-.25,7.74-1.04,7.86-5,.78-6.45,5.41-9.73,7.88-1.23.93-2.44,2.61-2.62,4.08-.69,5.49-.98,11.04-1.38,16.57-.53,7.46-1.01,14.92-1.51,22.38-.17,2.51-.77,5.12-.34,7.53,1.18,6.63,3.28,13.12,4.11,19.78.7,5.64.15,11.44.15,17.17-.58.04-1.17.09-1.75.13-4.74-11.01-1.91-24.15-9.05-34.92-1.84,4.13-4.07,7.72-5.04,11.61-2.19,8.84-4.02,17.79-5.51,26.78-2.14,12.84-9.41,22.87-16.63,32.6-2.38-.52-4.42-.85-6.38-1.44-1.23-.37-3.11-.9-3.37-1.76-1.18-3.91-7.35-5.54-5.03-11,.12-.29-.3-1.13-.65-1.27-3.73-1.54-2.48-4.93-2.96-7.69-.48-2.77-.57-5.72-1.63-8.26-6.42-15.44-8.78-31.52-8.61-48.15.12-11.17,2.29-22.47-3-33.33-3.38-6.95-5.62-14.45-8.36-21.71-.1-.61-.2-1.22-.3-1.83l-.33.11c.24.54.48,1.07.73,1.61,1.33,6.67,2.44,13.4,4.06,20,1.26,5.13,1.15,9.98-1.65,14.43-.91,1.45-3.06,3.13-4.53,3.03-4.32-.29-6.84,1.98-8.91,5.04-3.17,4.67-6.77,7.76-12.86,5.27-.79-.32-1.93.26-2.91.36-4.94.51-9.87,1.18-14.83,1.38-1.62.07-3.36-.95-4.94-1.71-3.53-1.68-6.92-3.58-11.02-1.46-2.47,1.27-5.11,2.27-7.76,3.13-11.09,3.59-22.21,7.07-33.3,10.63-2.64.85-6.58,1.44-5.93,4.7.32,1.6,4.67,2.59,7.33,3.44,1.11.35,2.55-.5,3.86-.57,1.19-.06,2.4.19,4.15.36-1.89,4.22-4.45,7.06-8.25,7.18-4.43.15-4.44,3.5-4.39,5.78.03,1.48,2.61,3.66,4.44,4.2,5.69,1.7,11.71,2.36,17.35,4.2,7.68,2.5,15.95,4.19,21.42,10.98,2.01,2.49,4.16,5.12,5.24,8.06,2.3,6.29-3.48,9.35-6.72,12.73-4.79,5-10.8,8.83-16.23,13.23-.55.45-.65,1.42-1.08,2.08-.6.93-1.28,2.54-1.97,2.57-4.38.18-5.4,3.8-6.89,6.63-4.31,8.2-12.32,10.42-20.04,5.31-.96-.63-2.2-.85-3.13-1.51-5.25-3.75-10.64-7.33-15.57-11.46-2.86-2.4-2.02-7.19.75-8.52,6.29-3,12.52-6.11,17.92-8.76-.69-3.96-1.25-7.13-1.8-10.3-.07-.79-1.46-1.21-2.82-1.71-6.17-2.26-6.93-3.66-5.45-9.9,1.82-7.7-3.1-16.81-10.97-19.27-13.04-4.09-24.18-11.87-35.75-18.64-3.55-2.08-6.79-4.7-10.81-6.13-2.9-1.03-4.94-2.85-4.61-6.65.15-1.71-1.35-3.57-2.48-6.25-1.24,4.47-2.47,7.76-3.02,11.17-.55,3.39-.43,6.89-.6,10.34-.39.08-.78.17-1.18.25-2.47-3.19-4.94-6.39-6.95-8.99.72-1.64,1.76-2.84,1.56-3.78-1.06-4.98-2.44-9.88-3.71-14.82-1.25-4.85.61-10.18,4.61-12.45.93-.53,2.74-.68,3.5-.13,1.91,1.39,3.49,3.25,5.12,5,.78.84,1.36,1.86,2.04,2.8.81-1.34,1.92-2.58,2.37-4.03,2.93-9.32,5.65-18.69,8.58-28.01,1.09-3.49,1.6-7.71,7.03-7.23.71.06,1.5-1.22,2.31-1.78,4.72-3.27,9.62-6.31,14.15-9.83,4.69-3.64,9.34-7.45,13.37-11.78,1.62-1.75,1.55-5.07,2.24-7.68-.31-.05-.62-.11-.94-.16-1.96,2.46-3.91,4.93-5.87,7.39-.41-.2-.81-.4-1.22-.6,0-1.04-.23-2.15.04-3.12,3.42-12.33,2.96-24.11-4.66-34.97-.85-1.22-1.66-2.58-2.01-4-.34-1.37-.07-2.88-.07-5.39,2.72,3.34,4.63,5.68,6.93,8.5,2.17-2.37,3.91-4.32,5.71-6.21.76-.8,1.53-1.83,2.49-2.14,6.23-2.01,8.4-7.24,10.45-12.66,1.22-3.23,2.25-6.61,4.02-9.53,3.42-5.63,6.42-11.96,11.18-16.24,8.08-7.26,19.06-9.32,29.14-12.72,4.22-1.42,5.61.21,5.27,4.69-.07.97-.42,1.94-.7,2.89-.91,3.1.41,4.23,4.21,4.21-2.87-11.29,6.74-14.88,12.86-20.91-3.83-.95-4.7-3.17-3.45-6.14,1.72-4.09,3.4-8.24,5.61-12.07,2.72-4.68,6.05-4.44,9.14-.22,1.47,2,3.65,3.75,5.88,4.87,4.02,2.01,4.35,3.2.91,6.31-1.49,1.35-2.95,2.72-5.17,4.78,2.29.25,3.33.66,4.18.41,5.43-1.56,9.61.58,13.75,3.86,5.18,4.1,10.57,7.95,16.08,11.6,3.14,2.08,6.29,4.48,10.74,2.12,1.26-.67,3.91.99,5.78,1.87,1.34.63,2.43,1.77,3.87,2.85v-23.4h14.59c-12.04-1.67-23.6-3.31-32.34-12.23.17-.57.33-1.15.5-1.72,9.82,1.76,19.64,3.53,29.46,5.29.04-.2.08-.4.11-.6-4.62-1.69-9.24-3.38-14.76-5.4,1.64-.58,2.22-.78,2.06-.72-2.84-1.07-6.45-2.26-9.89-3.82-.9-.41-1.27-1.98-1.88-3.01,1.11-.48,2.2-1.29,3.32-1.34,1.27-.06,2.56.61,3.86.87,7.55,1.54,15.11,3.09,23.15,1.96-1.25-3.41-2.25-6.18-3.59-9.85,5.29,2.03,9.41,3.61,13.52,5.19-.86-1.91-1.94-3.44-3.36-4.5-7.98-5.94-16.41-11.35-23.98-17.76-8.63-7.31-17.2-14.9-24.56-23.43-8.33-9.65-15.87-20.17-19.13-32.91-.58-2.27-.08-4.83-.08-7.25.41-.07.82-.14,1.24-.21,2.95,6.78,5.9,13.56,8.91,20.49,3.28-20.15,5.12-39.98,12.69-58.42,7.23,5.03,5.97,13.03,6.03,21.68,1.98-3.18,3.3-5.3,4.62-7.42l1.17.53c-1,9.51-2,19.02-3,28.53.27-.05.55-.11.82-.16.9-1.35,1.8-2.69,2.71-4.04.85,1.57,2.17,3.05,2.47,4.72.93,5.23,1.03,10.63,2.25,15.77,2.26,9.55,4.35,19.6,13.61,25.16,6.65,3.99,13.83,7.2,21.01,10.18,4.51,1.87,9.36,2.06,13.68-1.31,1.21-.95,2.74-1.48,3.58-1.91-2.75-1.85-5.22-3.87-7.99-5.3-9.75-5.04-18.45-11.41-23.22-21.49-5.11-10.8-11.06-21.85-3.84-34.19.24-.41.33-.95.37-1.44.12-1.57.58-3.26.19-4.7-1.58-5.78-3.79-11.41-5.11-17.25-1.79-7.9-9.62-15.66-16.65-15.35,3.38,6.16,6.75,12.26,4.8,19.87-3.48-10.98-7.93-20.69-19.14-25.8-8.55-3.89-16.63-8.82-26.29-9.53-3.97-.29-7.94-.6-11.91-.88-4.27-.3-5.46.69-3.95,4.73,2.39,6.36,2.41,13.91,8.72,18.51.92.67,1.51,2.25,1.65,3.47.77,6.51,1.64,13.03,1.93,19.57.56,12.91-7.18,20.49-17.82,25.51-6.4,3.02-13.41,4.71-19.87,7.6-6.55,2.93-12.7,4.22-19.82,1.56-2.35-.88-6.25,1.01-8.85,2.6-2.81,1.71-5.18,3.51-8.76,3.9-7.75.83-15.42,2.37-23.1,3.74-2.09.37-4.07,1.6-6.14,1.71-1.6.09-3.26-.95-4.9-1.49,1.14-1.18,2.07-2.89,3.45-3.41,2.7-1.03,4.23-2.83,2.94-5.22-2.57-4.77.29-6.06,3.8-7.63,5.18-2.32,6.86-4.33,7.43-7.99-1.76.24-3.53.72-5.29.67-7.85-.19-15.12,1.65-22.05,5.38-1.81.97-4.22,1.04-6.37,1.12-3.46.12-7.1-.77-10.36.03-3.12.76-5.56.7-7.7-1.46-3.84-3.87-7.79-7.69-11.07-12.01-1.23-1.61-1.64-5.03-.76-6.8,1.58-3.19,4.24-5.93,6.77-8.55,2.02-2.09,5.16-5.7,6.65-5.2,4.13,1.38,2.13,5.94,2.51,9.24.58,5.14,1.09,10.29,1.63,15.43.53,0,1.06-.01,1.6-.02,3.1-6.92,5.16-14.18,3.72-21.85-1.67-8.89-3.77-17.71-6.15-26.44-1.44-5.3-2.19-11.37-8.03-14.15-3.04-1.45-6.95-1.52-9.51-3.47-4.71-3.57-9.67-2.4-14.72-2.5-2.46-.05-5.37-.51-7.25-1.91-4.59-3.43-6.84-8.28-5.81-14.46-8.34-1.87-10.46-9.14-13.24-15.6-1.46-3.4-2.52-7.34-2.42-10.99.32-11.81,6.93-19.87,16.54-26.08,7.51-4.85,14.66-10.25,22.07-15.26,1.73-1.17,3.81-2.19,5.83-2.47,5.65-.75,11.36-1.47,17.05-1.43,3.53.02,7.38.81,10.48,2.41,3.58,1.86,6.45,5.06,9.72,7.56,3.13,2.39,6.25,4.34,10.24,1.12.98-.79,3.26-.28,4.85.05,2.32.48,2.62,5.06,6.23,3.21,2.4,4.94,9.3,5.59,10.82,11.36.03.13-.03.28-.05.42,0-.02-.02-.04-.02-.07-.68-3.56-1.42-7.11-2.61-10.51-7.21-20.58-18.79-36.91-41.54-42.33-.94-.22-1.58-1.76-2.62-3,13.36-1.84,21.21,7.86,32.25,12.19-12.45-12.65-26.03-20.06-43.38-19.82,1.8-.62,3.59-1.24,5.07-1.75-10.16-1.16-18.53,3.81-26.61,9.7,5.3-7.22,13.09-9.98,20.94-12.66.05-.45.1-.9.15-1.35-4.76-.68-9.52-1.36-14.27-2.05.01-.54.03-1.08.04-1.62h17.23c.02-.71.04-1.43.06-2.14-7.6-.61-15.19-1.22-22.79-1.83-.08-.39-.17-.77-.25-1.16,8.71-2.34,17.64-3.43,26.48-3.77-2.67-.62-5.62-1.31-8.57-2,3.99-.82,8-1.82,11.84-1.39,10.96,1.22,21.94,2.36,32.29,6.91,3.02,1.33,6.99.29,9.96,2.86.4.34,1.99-.7,3.41-1.25-1.64-1.87-3.18-3.36-4.36-5.08-.77-1.12-1.02-2.59-1.51-3.91l-.07.13c7.67,6.26,19.36,6.43,24.61,16.51-1.58,0-2.89-.54-4.2-1.09-1.57-.66-3.14-1.33-4.71-2l-.84-1.27c-.26-.06-.52-.13-.78-.19.3.03.59.05.89.08Zm-199.13,377.05c1.4-.41,2.81-.82,5.44-1.59-2.31-.78-3.31-1.12-4.41-1.49-.4,1.14-.75,2.15-1.1,3.16v.15s.07-.23.07-.23Zm350.87-63.12c.96,0,1.91-.06,2.87,0,1.32.07,2.64.22,3.96.33,0-.46.17-1.23-.02-1.33-1.16-.65-2.38-1.19-3.62-1.68-2.85-1.13-2.34,1.7-3.29,2.83l.18.17s-.09-.3-.09-.3Zm24.16-41.82l-.14-.08.1.12c-.02,1.36,4.6-.62,1.91,2.65-.01.02-.23-.13-.35-.2.09.14.18.27.27.41,9.91,2.98,19.32-.26,23.44-8.28-8.03,4.26-15.82,8.77-25.22,5.38Zm-57.9-29.28c.15.2.31.41.46.61-.18.07-.35.14-.53.22.05-.25.09-.49.14-.74-1.67-2.95-3.69-5.76-4.94-8.88-2.76-6.91-5.12-13.98-7.75-21.27.07,12.01,3.5,22.26,12.62,30.06ZM399.96,74.92c4.33-2.68,7.88-6.04,10.15-11.28-10.92,4.05-16.62,12.63-22.19,21.33-3.39,3.2-6.73,6.46-10.22,9.55-.56.49-1.79.22-2.71.3l-.1.12s.23-.03.23-.03c-.1,1.49-.21,2.98-.33,4.68,1.39.79,2.87,1.64,4.37,2.49.44-1.23.88-2.45,1.4-3.89,1.07,3.72,2.02,7,2.7,9.38,1.42-7.13,2.98-14.92,4.54-22.72,1.28-.85,2.69-1.55,3.8-2.58,2.56-2.37,4.97-4.89,7.44-7.35.16.4.31.8.5,1.29.16-.48.29-.88.42-1.29Zm84.89-1.03c-7.29,8.69-14.59,17.38-21.88,26.08-.25.14-.5.28-.75.41.18.08.37.15.55.23.03-.25.06-.49.08-.74,5.74-.74,20.5-8.71,23.38-13.03-3.6,2.02-6.62,3.71-9.17,5.15,2.57-6.06,5.12-12.09,7.68-18.13l.31.02h-.2Zm-58.86-6.9s-.09-.11-.09-.11c.29,1.27.58,2.54.68,2.98,2.5-2.06,5.28-4.35,8.05-6.63,1.13,1.43,2.26,2.87,2.91,3.7,2.86-2.66,6.14-5.7,9.53-8.85-6.34-3.28-11.48-.01-16.56,2.52-12.33,6.15-12.28,6.25-13.92,10.93,3.43-1.65,6.41-3.09,9.39-4.53Zm112.06,153.95c-.18-.21-.37-.41-.55-.62-.04.21-.09.41-.13.62.25-.04.51-.07.76-.11,1.98,3.79,3.1,8.6,6.12,11.14,5.92,4.97,12.86,8.72,19.47,12.83,1.26.79,2.95.89,4.48,1.32-5.23-4.91-10.21-9.55-15.15-14.22-4.54-4.29-8.48-9.39-15.01-10.95Zm24.9-44.03c6.5,2.6,13,5.19,19.99,7.98-2.6-4.59-8.13-6.18-7.3-12.04.06-.41-2.65-1.96-3.38-1.6-4.07,2.01-7.32,1.09-11.23-2.85,2.2-1.68,4.31-3.3,5.49-4.2-2.9,0-6.29,0-9.68,0,2.64-2.84,5.28-5.68,7.94-8.52-2.4-3.49-4.81-1.27-7.27-.05-1.58.78-3.17,1.69-4.85,2.05-3.07.66-6.22.96-9.92,1.49,4.67,3.6,8.34,7.64,14.23,4.92-.16,1.66-.31,3.31-.38,4.07,1.63,2.87,3.07,5.39,4.51,7.91-2.4-.93-4.79-1.9-7.22-2.79-3.84-1.41-4.23-1.23-6.68,3.06,5.1,1.37,10.05,2.69,15.28,4.1.19-1.33.34-2.43.5-3.53Zm32.02,96.06l.15.12-.2-.09c-.78-1.33-1.27-3-2.38-3.94-9.35-7.89-20.15-13.01-31.87-16.29-1.64-.46-3.37-.63-5.27-.97,10.4,13,25.45,16.18,39.56,21.17Zm-338.03,567.98l.07.06c-1.79-1.45-3.38-3.34-5.41-4.25-5.16-2.31-6.35-9.05-1.29-13.31-4.54-2.71-8.57-6.22-13.23-7.59-4.96-1.46-7.64-4.52-10.71-8.13-5.89-6.91-6.29-17.57-15.36-22.2-.25-.13-.34-.56-.53-.83-1.73-2.38-3.15-5.09-5.26-7.07-4.61-4.33-9.5-8.39-14.45-12.34-1.32-1.05-4.4-2.21-4.7-1.81-1.27,1.67-2.14,3.85-2.49,5.96-.22,1.32.66,2.86,1.18,4.25,2.87,7.77,5.85,15.49,8.65,23.28,1.32,3.68-.47,5.74-4.12,4.15-4.91-2.13-9.76-4.81-13.92-8.16-8.13-6.55-15.77-13.72-23.61-20.64.5-.59,1-1.19,1.5-1.78-.59,3.27-1.47,6.52-1.7,9.81-.36,5.22-.29,10.47-.39,15.27,4.95-2.55,5.54-2.2,5.35,4.69-.12,4.12,1.31,7.18,4.46,10,3.12,2.79,5.73,6.25,8.07,9.75.81,1.22.13,3.43.13,4.85-4.61-1.66-8.22-3.04-11.88-4.23-2.07-.67-4.37-.73-6.32-1.61-1.8-.81-3.26-2.35-4.87-3.56.28,2.73.85,5.39,2.47,6.96,5.51,5.32,7.24,11.92,8.09,19.19.69,5.87-2.44,10.07-8.64,10.65-11.87,1.12-23.73,2.42-35.6,3.58-1.76.17-3.56.02-5.34.02,3.63-1.02,7.23-1.32,10.84-1.41,12.06-.32,24.11-2.37,36.17.45,5.18,1.21,9.34,3.02,11.07,8.54.32,1.02,1.68,2.05,2.78,2.43,2.01.7,4.19,1.31,6.3,1.3,24.47-.06,48.93-.23,73.39-.43,2.02-.02,4.04-.51,6.07-.79-.03.43-.06.87-.09,1.3-3.04-.5-6.09-.99-9.13-1.49.03-.42.07-.85.1-1.27,4.47-1.68,8.97-3.29,13.4-5.07,3.02-1.22,5.16-.6,7.47,1.82,2.59,2.72,5.84,4.81,8.81,7.17.38-.34.77-.69,1.15-1.03-.48-1.51-.95-3.03-1.46-4.54-2.14-6.4-4.2-12.84-6.49-19.19-1.16-3.22-1.81-5.67,2.19-7.67,1.63-.81,4.75-3.56-.14-5.96,4.78-1.96,4.45-5.47,3.77-9.24-.88-4.82-1.53-9.67-2.32-14.84-4.68-1.16-5.53-1.88-4.15-7.58,1.33-5.52.6-10.32-2.97-14.45-3.41-3.94-6.97-7.91-11.14-10.95-2.25-1.65-6.02-2.04-8.38,1.25-3.8,5.28-5.68,5.76-9.78.57-7.53-9.52-14.61-19.42-21.5-29.42-3.13-4.55-4.92-10.03-8.11-14.53-4.68-6.61-10.22-12.61-15.13-19.06-9.55-12.55-18.89-25.26-28.39-37.84-1.84-2.44-4.52-2.07-6.47.37-.86,1.08-2.18,1.8-3.39,2.76-2.6-4.34-4.97-8.28-7.33-12.23.99,3.84,2.65,7.33,4.32,10.82.42.87,1.48,1.93,1.25,2.54-1.5,3.98,1.17,6.48,3.14,9.08,4.41,5.83,9.24,11.35,13.56,17.24,8.47,11.55,16.95,23.1,24.87,35.03,1.92,2.89,3.23,3.18,6.08,2.52,1.61-.37,3.8-.28,5.14.55,7.42,4.58,13.91,10.12,18.39,17.86,6.62,11.43,13.4,22.76,20.37,33.97,6.14,9.87,12.87,19.38,18.87,29.34,1.79,2.96,2.55,6.86,2.73,10.38.19,3.59-1.61,6.62-6.01,6.71Zm673.97,71.11c6.94-3.2,13.75-5.47,20.78.14,1.82,1.46,5.11,2.92,6.9,2.23,4.84-1.86,8.21.71,12.13,2.28,4.88,1.95,9.91,3.52,14.88,5.26-9.35-5.87-19.22-10.7-28.87-15.95-9.47-5.15-20.31-7.84-28.01-15.38,1.39-1.05,2.75-2.08,4.02-3.04-1.65-.7-3.07-1.3-4.95-2.1,1.38-.44,2.28-.73,3.32-1.06-1.89-.63-3.68-1.22-5.14-1.7,1.17-1.14,2.33-2.27,3.1-3.02-12.97-3.24-26.89-2.29-40.21-6.52.99-1.52,1.98-2.58,3.2-3.14,4.51-2.09,9.08-4.06,13.66-5.98,4.69-1.97,8.89-5.04,9.45-10.07,1.05-9.36,1.14-18.85,1.3-28.29.01-.85-2.35-1.74-3.61-2.61-3.11,4.71-7.88,3.15-11.78,2.34-6.01-1.25-12.95-1.58-15.71-8.96-.3-.81-1.64-1.74-2.49-1.74-3.18.03-6.38.29-9.54.72-7.78,1.05-15.54,2.24-23.31,3.36-4.68.68-9.35,1.48-14.05,2-8.71.95-17.52,1.25-26.14,2.72-10.34,1.77-20.49,4.58-30.77,6.74-6.19,1.3-12.45,2.99-18.71,3.13-7.44.16-14.75-.13-21.58,3.48-.81.43-1.95.33-2.93.32-13.2-.21-26.41-.76-39.61-.59-11.76.15-23.54.81-35.27,1.76-7.61.62-15.15,2.17-23.19,3.37.66,2.06.72,3.14,1.28,3.84,5.26,6.61,10.6,13.15,15.92,19.7,1.83,2.25,3.83,3.7,7.09,3.77,18.63.4,37.26,1.13,55.89,1.57,2.94.07,5.9-.79,8.87-1.12,3.23-.35,6.48-.58,10.34-.92-.18,9.54-5.7,16.47-7.84,24.47,5.35.29,10.78.7,16.23.86,17.8.52,35.61.99,53.41,1.39,20.64.47,41.29,1.12,61.93,1.12,8.11,0,16.27-.64,24.1-3.93,4.4-1.85,9.38-1.78,13.45,2.24,1.95,1.93,4.38,4.01,6.92,4.61,6.71,1.57,11.21,5.87,15.78,10.52,3.98,4.05,7.31,9.24,13.97,9.71-1.38-1.83-3.2-3.17-4.66-4.83-.38-.43.33-1.83.53-2.79l-.09.08Zm-81.67,71.77l-.28,2.19c1.58.53,3.12,1.25,4.74,1.54,2.76.5,5.6.55,8.35,1.09,7.32,1.45,14.61,3.02,21.89,4.62,7.86,1.72,15.71,3.47,23.54,5.29,4.99,1.16,9.95,2.43,14.91,3.72,10.82,2.81,21.66,5.57,32.44,8.54,3.49.96,5.92.61,7.73-2.9,2.87-5.55,6.5-10.74,9.01-16.43,3.34-7.57,8.51-10.07,16.64-9.25,5.43.55,11.05-.84,16.59-1.35,0-.47-.02-.94-.03-1.42h-44.75c0-.65,0-1.3,0-1.95h27.03c-.01-.62-.02-1.25-.04-1.87-5.31-.1-10.65-.59-15.93-.21-9.55.69-19.04,2.5-28.59,2.74-15.44.39-30.9.09-46.34-.3-8.09-.2-16.15-1.35-24.24-1.85-13.44-.83-26.89-1.96-40.34-2.06-13.47-.11-26.94.91-40.41,1.38-9.38.33-18.77.56-28.16.83,0,.54-.02,1.08-.02,1.62,19.82.91,39.63,1.93,59.45,2.69,20.05.77,40.1,1.28,60.16,1.91,0,.47,0,.94,0,1.4h-33.35ZM502.64,247.45c.26-.56.52-1.12.78-1.69-2.01-2.37-4.1-6.78-6.02-6.71-4.6.18-9.74,1.53-13.55,4.07-9.85,6.58-19.18,13.96-28.57,21.21-5.34,4.12-5.83,10.48-6.57,16.5-.61,4.96,3.65,6.99,6.87,8.93,3.38,2.04,7.74,4.43,11.19,3.84,4.21-.72,7.67-.71,10.69,1.86,6.56,5.59,14.7,5.73,22.48,6.89,4.14.62,5.58-1.35,5.76-6.07.03-.76.25-1.96.72-2.17,5.17-2.29,6.72-6.08,6.42-11.67-.22-4.24,3.17-7.36,6.32-9.98,2.94-2.45,2.88-4.26-.09-6.74-3.82-3.19-7.26-6.85-10.89-10.28-2.15-2.03-4.16-2.35-7.13-.84-4.65,2.37-9.71,4-14.69,5.64-1.3.43-2.97-.25-5.45-.54,6.06-7.71,13.28-11.01,21.72-12.28Zm29.15,355.98c8.09,1.28,14.3-2.63,20.73-5.46,1.17-.52,2.42-2.73,2.29-4.01-.8-7.74-1.1-15.78-8.1-21.22-.61-.47-.95-1.36-1.27-2.12-1.59-3.85-4.38-3.16-7.36-2.05-4.06,1.52-5.88,5.2-6.11,8.75-.55,8.59-.18,17.24-.18,26.11Zm117.68-280.22c-.53-4.86,3.45-9.58.46-16.12-2.91-6.37-6.47-12-11.19-16.51-6.4-6.12-13.91-11.13-21.18-16.3-4.62-3.28-9.67-5.97-14.52-8.93,3.1,5.11,6.51,9.51,9.95,13.87,1.52,1.93,2.9,4.05,4.75,5.61,5.36,4.51,11.13,8.54,16.35,13.19,7.78,6.93,13.69,15.14,15.38,25.17Zm8.68,207.66c-.3,0-.61.02-.91.03-.13-1.71-.25-3.42-.38-5.13-.43-.13-.86-.27-1.29-.4-2.49,6.21-5.21,12.33-7.38,18.65-1.17,3.4-2.11,7.18-1.81,10.67.25,2.9,2.46,5.64,3.95,8.76,1.55-1.64,2.46-2.61,3.82-4.05.31,1.92.5,3.13.56,3.49.24-.53.81-1.79,1.65-3.66.63,1.37.99,2.16,1.53,3.36.64-4.73,1.06-9.31,1.91-13.8.86-4.58,2.76-9.03,3.07-13.62.3-4.39-.85-8.88-1.37-13.33-.21-.05-.42-.09-.63-.14-.91,3.06-1.82,6.12-2.73,9.17Zm180.55,423.31l.64-1.83c-14.06-7.08-28.09-14.2-42.19-21.19-1.92-.95-4.29-2.46-5.95.72-1.65,3.16-.04,5.14,2.54,6.35,4.45,2.08,8.97,4.06,13.6,5.66,10.4,3.57,20.9,6.88,31.36,10.3Zm-288.26-634.85c-.84-3.2-.74-6.61-2.4-8.38-4.19-4.47-8.35-9.65-15.47-9.39-1.53.06-4.06.57-4.31,1.41-.4,1.38.2,3.67,1.24,4.73,4.71,4.78,9.66,9.31,14.67,13.79.97.87,2.94,1.8,3.75,1.37,1.22-.65,1.82-2.46,2.52-3.54Zm-259.06-38.18c-.53.07-1.06.13-1.59.2-6.21,16.34.64,39.4,9.69,44.62-.38-.85-.6-1.45-.91-1.99-4.55-8.05-6.37-16.55-5.7-25.9.4-5.58-.94-11.28-1.49-16.93Zm412.94,294.12c2.55-4.32,4.89-7.5,6.38-11.04,1.39-3.3-.76-7.77-3.26-8.2-3.8-.66-8.55,4.65-7.34,8.38,1.02,3.14,2.37,6.17,4.21,10.86Zm-81.17,31.54c1.02-2.85,1.92-4.8,2.37-6.85.24-1.12.08-3.22-.53-3.5-3.78-1.69-3.1-5.49-4.37-8.34-.76-1.71-1.55-3.41-2.32-5.11-.46.16-.91.33-1.37.49,2.01,7.53,4.02,15.06,6.22,23.31Zm-75.23-440.44c-6.07-4.02-12.15-8.05-18.22-12.07,5.52,4.82,9.76,11.51,18.22,12.07Zm38.8,70.4c-.14.53-.27,1.07-.41,1.6l16.4,3.74c.09-.37.19-.75.28-1.12-5.42-1.41-10.85-2.81-16.27-4.22Zm22.03,316.03c.6,4.55,1.09,8.25,1.6,12.07,1.2-.74,2.11-1.3,2.98-1.83-1.44-3.23-2.81-6.29-4.58-10.24Zm-100.9-312.06c-.23.12-.45.24-.68.36.59,1.19,1.19,2.38,1.78,3.57.26-.14.52-.27.78-.41-.62-1.17-1.25-2.35-1.87-3.52Zm-93.96-167.89c.2.16.45.46.57.42.28-.1.5-.37.74-.57-.18-.11-.39-.33-.53-.29-.28.07-.52.28-.78.45Zm234.54,254.35h.07v1.75s-.05,0-.07,0v-1.75Zm-250.86-247.09h-.1s.09-.39.09-.39v.39Zm112.98,166.94h-.07s.09-.39.09-.39v.39ZM24.3,984.56l-.45.03.04-.22.4.19ZM484.5,93.31l-.19.22.34.04-.14-.26Zm-66.05-6l-.15.24.24.03-.09-.27Z"/>
  <path class="c" d="m376,1024c-5.97-.36-11.94-.82-17.91-1.06-15.65-.64-31.32-1.15-46.97-1.79-7.23-.29-14.45-1.03-21.68-1.07-9.24-.05-18.49.74-27.72.52-10.45-.24-20.89-1.29-31.34-1.81-7.02-.34-14.06-.33-21.09-.54-6.37-.19-12.74-.51-19.12-.71-2.06-.07-4.13.14-6.19.03-7.35-.38-15.39.87-21.83-1.77-6.27-2.57-11.96-1.49-17.9-1.9-2.21-.15-4.58.74-4.59-2.94,0-.34-2.93-.9-4.52-.96-2.83-.1-5.44,1.52-8.49-.99-1.67-1.37-5.47-.57-8.21-.13-6.25,1.02-12.09-1.7-18.3-1.86-4.7-.12-10.23-.99-15.21-2.49-1.31-.4-3.49-.8-4.11-.14-2.27,2.45-4.25.36-5.76-.4-1.43-.71-2.47-.56-3.72-.74-4.75-.69-9.6,2.49-14.27-.58-1.02-.67-3.31.74-4.52.15-1.87-.9-5.03,1.48-5.78-2.24-.08-.39-1.1-.67-1.73-.84-4.58-1.25-9.2-2.38-13.75-3.73-1.6-.48-1.86-5.84-.53-6.89.73-.58,1.27-1.4,2.02-2.26-1.89-1.78-3.66-3.43-5.42-5.08-.38-.35-.74-.72-1.11-1.09.56-.16,1.11-.35,1.68-.46,2.13-.43,4.31-.68,6.36-1.33.65-.21,1.37-1.52,1.31-2.25-.06-.65-1.08-1.51-1.83-1.73-.88-.26-1.94.07-2.58.12-.83-2.38-2.14-4.54-2.2-6.74-.05-2.03,1.25-4.1,2.01-6.34-4.68-3.41-1.23-9.41-3.05-14.08.35-.05.71-.1,1.06-.14-.1-.24-.21-.49-.31-.73-.23.32-.46.64-.69.96.3-2.81.57-5.62.92-8.42.16-1.28.51-2.54.8-3.93.76.37,1.77.85,3.13,1.51.12-1.61.24-3.09.32-4.23,17.42-1.4,35.18-2.83,52.94-4.26,0-.73.02-1.46.02-2.2-14.66-1.5-29.32-3-43.83-4.48-.18-.5-.21-.61-.25-.72.14.02.36.11.4.06.93-1.33,2.88-3,2.57-3.95-1.44-4.54,3.08-6.2,3.59-9.91-1.51-1.12-3.53-2.64-5.18-3.87,1.55-1.72,2.64-3.37,4.14-4.44.86-.61,2.4-.49,3.6-.37,5.84.56,11.66,1.23,17.5,1.87.16-.43.32-.85.48-1.28-2.73-1.96-5.46-3.92-8.19-5.88,19.56,6.12,35.1,17.61,46.45,34.63,7.08,10.63,14.2,21.23,21.32,31.84.32.48.77.87,1.8,2.04.58-3.1,1.1-5.37,1.41-7.66,1.91-14.35,9.74-26.25,16.19-38.66,3.86-7.43,8.4-14.95,15.91-19.23,10.66-6.07,21.76-11.51,34.62-6.25l.12-.05c-3.43-.43-6.84-1.08-10.28-1.23-6.97-.3-12.17,3.38-16.8,8.08-.13.13.23.73.36,1.11-.61,0-1.21-.01-1.82-.02.02.29.04.58.07.87.56-.33,1.12-.65,1.68-.98,1.7-.48,3.43-.84,5.08-1.46,6.41-2.4,12.85-4.53,20.49-2.83-6.9.02-12.66,1.42-16.97,6.13.15.45.3.9.45,1.34,1.34-.3,2.75-.43,4.02-.91,11.22-4.28,21.68-1.47,32.18,2.92,19.71,8.23,36.08,22.03,54.59,32.25,14.72,8.13,29.59,16.04,45.81,20.66,9.47,2.7,19.39,3.78,29.04,5.91,8.75,1.93,17.37,4.47,26.12,6.39,22.39,4.93,44.71,10.06,67.86,10.6,15.77.37,31.51,2.31,47.27,3.25,10.3.61,20.72-.08,30.94,1.11,30.71,3.58,61.35,7.81,92.03,11.75,14.65,1.88,29.3,3.68,43.96,5.47,3.79.46,7.45.52,10.92-1.87,2.04-1.41,4.72-1.89,7.84-3.06-1.21,2.21-1.99,3.63-2.96,5.42,1.42.48,2.73.92,4.37,1.48,2.49-8.51,4.74-16.9,11.55-22.85-3.85,9.96-7.75,19.88-11.5,29.86-.6,1.6-.48,3.46-.7,5.2l-.1-.14c-3.23-1.41-6.44-2.87-9.7-4.21-1.77-.73-3.58-1.64-5.43-1.83-11.21-1.13-22.44-2.11-33.67-3.06-2.15-.18-4.32.04-6.49-.01-17.46-.4-34.92-1-52.39-1.13-5.42-.04-10.96.77-16.26,1.98-5.73,1.31-10.96,1.09-16.85.1-8.45-1.43-17.44.6-26-.46-8.36-1.03-16.55.27-24.82-.22-8.58-.5-17.21-.87-25.79-.56-15.7.56-31.39,1.63-47.07,2.57-3.96.24-4.33,1.3-2.32,4.91,1.73,3.13,3.26,6.37,4.86,9.58.28.55.45,1.16.67,1.74h-37Zm-324.18-115.53c-.24-.18-.52-.53-.7-.49-.28.07-.49.41-.73.64.24.12.49.35.7.32.25-.04.48-.3.72-.47Zm-19.92,72.9c-.12-.13-.21-.24-.31-.34-.11.21-.25.4-.3.62-.02.08.18.21.27.32.11-.2.23-.4.34-.6Z"/>
  <path class="c" d="m432.16,85.13c.29,4.95-3.63,7.34-6.27,10.57-1.26,1.55-1.85,3.65-2.75,5.5-.56.01-1.11.02-1.67.03.05.15.11.29.16.44.47-.2.95-.39,1.42-.59,5.43,1.34,9.27-2.7,13.86-4.18,1.32-.43,2.48-1.37,4.55-2.57-.82,2.02-1.27,3.12-2,4.92,6.03-.52,11.44-1,16.86-1.47.14.5.28,1,.42,1.5-1.61,1.02-3.36,1.87-4.77,3.11-1.17,1.02-1.94,2.48-2.88,3.75-.34,0-.68,0-1.03,0,.05.14.1.28.15.41.27-.17.54-.35.81-.52,3.7-1.29,7.41-2.58,11.11-3.87l-.12-.12c-.17.29-.2.59-.07.91-.26.24-.51.49-.76.73.15.05.3.1.44.15.07-.32.14-.64.22-.96,2.49-.53,5.09-.76,7.44-1.64,5.02-1.87,9.92-4.08,13.82-5.72,2.6.17,4.64.87,6.19.29,3.08-1.15,5.83-3.15,8.85-4.51,2.04-.92,4.49-2.51,6,.92-.55-.06-1.1-.13-1.65-.19-.01.26-.02.52-.04.78l1.62-.7c.28.44.85,1.22.8,1.26-1.34,1.08-2.74,2.09-3.83,3.77,9.23-.18,17.19-4.7,25.16-6.58-2.91,9.89-13.75,8.84-21.31,12.85.13.43.27.86.4,1.29,4.61-.27,9.29-.11,13.8-.92,4.44-.79,8.71-2.55,12.95-3.85-3.95,14.12-15.24,15.4-26.91,15.96-2.94.14-5.9.02-8.85.02-.13.51-.27,1.03-.4,1.54,1.6.56,3.17,1.54,4.79,1.61,11.45.54,22.56-.84,32.88-6.31.53-.28,1.27-.14,2.16-.22-.31,1.94-.61,3.79-1.06,6.59,3.19-.99,5.55-1.73,7.91-2.47.11.22.23.44.34.67-1.27.95-2.55,1.9-4.08,3.04.9.74,1.61,1.32,2.47,2.04-.99,1.13-1.99,2.27-3.2,3.64,9.48,5.72,17.94-3.3,26.33-1.61,1.65,4.92-6,8.12-1.12,13.3-2.09,3.92-5.5,6.25-10.17,7.21-1.36.28-2.44,1.96-3.65,3.01,1.6.46,3.19,1.29,4.79,1.28,1.57,0,3.13-.87,4.7-1.35,0,0-.08.09-.08.09-2.39,2-4.58,4.33-7.21,5.92-3.21,1.94-6.84,2.45-10.43.66-5.78-2.87-11.54-5.79-17.32-8.65-2.17-1.07-4.38-2.04-7.61-3.54.89,1.95,1.27,2.78,1.65,3.61l.11-.11h-5.6c9.03,8,17.61,15.6,26.19,23.2-4.74-2.11-10.85,1.66-14.82-3.63-3.26-4.35-6.72-8.54-10.09-12.8-.34.15-.68.3-1.01.46.9,2.23,1.79,4.45,2.81,7-5.81-3.44-9.62-8.35-12.65-13.97l-.09.1c1.57.67,3.14,1.34,4.71,2,1.31.55,2.63,1.08,4.2,1.09-5.25-10.08-16.94-10.25-24.61-16.51-.38-.16-.76-.32-1.14-.48.06.26.12.52.18.79.35-.15.69-.29,1.04-.44.49,1.32.74,2.79,1.51,3.91,1.18,1.72,2.72,3.21,4.36,5.08-1.42.55-3.02,1.59-3.41,1.25-2.97-2.57-6.94-1.53-9.96-2.86-10.35-4.55-21.33-5.69-32.29-6.91-3.85-.43-7.85.57-11.84,1.39,2.95.69,5.9,1.38,8.57,2-8.84.34-17.77,1.43-26.48,3.77.08.39.16.77.25,1.16,7.6.61,15.19,1.22,22.79,1.83-.02.71-.04,1.43-.06,2.14h-17.23c-.01.54-.03,1.08-.04,1.62,4.76.68,9.52,1.36,14.27,2.05-.05.45-.1.9-.15,1.35-7.84,2.68-15.63,5.44-20.94,12.66,8.07-5.89,16.44-10.87,26.61-9.7-1.48.51-3.27,1.13-5.07,1.75,17.36-.23,30.93,7.17,43.38,19.82-11.04-4.33-18.89-14.03-32.25-12.19,1.04,1.24,1.68,2.78,2.62,3,22.75,5.41,34.32,21.74,41.54,42.33,1.19,3.4,1.94,6.96,2.61,10.51,0,.02.02.04.02.07.02-.14.08-.29.05-.42-1.52-5.77-8.42-6.42-10.82-11.36-3.61,1.85-3.91-2.73-6.23-3.21-1.59-.33-3.87-.84-4.85-.05-3.99,3.22-7.11,1.27-10.24-1.12-3.27-2.5-6.14-5.7-9.72-7.56-3.1-1.61-6.96-2.39-10.48-2.41-5.68-.04-11.39.67-17.05,1.43-2.03.27-4.11,1.3-5.83,2.47-7.41,5.01-14.56,10.41-22.07,15.26-9.61,6.21-16.22,14.27-16.54,26.08-.1,3.66.96,7.59,2.42,10.99,2.77,6.46,4.9,13.73,13.24,15.6-1.03,6.19,1.22,11.04,5.81,14.46,1.87,1.4,4.79,1.86,7.25,1.91,5.05.1,10.01-1.07,14.72,2.5,2.57,1.95,6.47,2.02,9.51,3.47,5.83,2.78,6.58,8.85,8.03,14.15,2.38,8.73,4.48,17.55,6.15,26.44,1.44,7.67-.62,14.93-3.72,21.85-.53,0-1.06.01-1.6.02-.54-5.14-1.05-10.29-1.63-15.43-.37-3.3,1.63-7.86-2.51-9.24-1.5-.5-4.64,3.11-6.65,5.2-2.53,2.62-5.19,5.36-6.77,8.55-.88,1.77-.46,5.18.76,6.8,3.28,4.32,7.23,8.14,11.07,12.01,2.14,2.15,4.59,2.22,7.7,1.46,3.26-.8,6.9.1,10.36-.03,2.15-.08,4.56-.15,6.37-1.12,6.92-3.73,14.2-5.57,22.05-5.38,1.76.04,3.53-.44,5.29-.67-.57,3.65-2.26,5.67-7.43,7.99-3.51,1.57-6.37,2.86-3.8,7.63,1.29,2.4-.24,4.2-2.94,5.22-1.38.53-2.32,2.24-3.45,3.41,1.64.54,3.3,1.58,4.9,1.49,2.07-.11,4.05-1.34,6.14-1.71,7.68-1.38,15.36-2.91,23.1-3.74,3.58-.39,5.95-2.18,8.76-3.9,2.6-1.59,6.51-3.47,8.85-2.6,7.12,2.66,13.28,1.37,19.82-1.56,6.46-2.9,13.48-4.59,19.87-7.6,10.64-5.02,18.38-12.6,17.82-25.51-.28-6.54-1.16-13.06-1.93-19.57-.14-1.23-.73-2.8-1.65-3.47-6.31-4.6-6.33-12.15-8.72-18.51-1.52-4.03-.32-5.03,3.95-4.73,3.97.28,7.94.59,11.91.88,9.67.72,17.75,5.64,26.29,9.53,11.21,5.11,15.66,14.81,19.14,25.8,1.95-7.61-1.42-13.7-4.8-19.87,7.03-.31,14.86,7.46,16.65,15.35,1.32,5.84,3.53,11.47,5.11,17.25.4,1.44-.07,3.13-.19,4.7-.04.49-.13,1.03-.37,1.44-7.21,12.34-1.26,23.38,3.84,34.19,4.77,10.09,13.46,16.46,23.22,21.49,2.77,1.43,5.23,3.45,7.99,5.3-.83.44-2.37.97-3.58,1.91-4.32,3.38-9.17,3.19-13.68,1.31-7.18-2.98-14.36-6.19-21.01-10.18-9.26-5.56-11.35-15.61-13.61-25.16-1.22-5.15-1.33-10.54-2.25-15.77-.3-1.67-1.62-3.15-2.47-4.72-.9,1.35-1.8,2.69-2.71,4.04-.27.05-.55.11-.82.16,1-9.51,2-19.02,3-28.53l-1.17-.53c-1.32,2.12-2.64,4.23-4.62,7.42-.07-8.65,1.2-16.65-6.03-21.68-7.57,18.43-9.41,38.26-12.69,58.42-3.01-6.93-5.96-13.71-8.91-20.49-.41.07-.82.14-1.24.21,0,2.42-.5,4.97.08,7.25,3.26,12.74,10.79,23.26,19.13,32.91,7.37,8.53,15.93,16.13,24.56,23.43,7.57,6.41,16,11.82,23.98,17.76,1.42,1.06,2.5,2.59,3.36,4.5-4.12-1.58-8.24-3.16-13.52-5.19,1.34,3.67,2.35,6.44,3.59,9.85-8.04,1.14-15.6-.42-23.15-1.96-1.3-.27-2.59-.93-3.86-.87-1.13.05-2.22.87-3.32,1.34.61,1.04.99,2.61,1.88,3.01,3.44,1.56,7.04,2.75,9.89,3.82.16-.06-.42.15-2.06.72,5.52,2.02,10.14,3.71,14.76,5.4-.04.2-.08.4-.11.6-9.82-1.76-19.64-3.53-29.46-5.29-.17.57-.33,1.15-.5,1.72,8.74,8.92,20.3,10.56,32.34,12.23h-14.59v23.4c-1.44-1.09-2.53-2.22-3.87-2.85-1.87-.89-4.52-2.54-5.78-1.87-4.44,2.36-7.6-.04-10.74-2.12-5.51-3.65-10.9-7.5-16.08-11.6-4.14-3.28-8.32-5.43-13.75-3.86-.85.25-1.89-.16-4.18-.41,2.22-2.06,3.68-3.44,5.17-4.78,3.44-3.11,3.11-4.29-.91-6.31-2.23-1.12-4.41-2.86-5.88-4.87-3.09-4.22-6.42-4.46-9.14.22-2.22,3.82-3.9,7.98-5.61,12.07-1.25,2.97-.37,5.18,3.45,6.14-6.12,6.03-15.73,9.63-12.86,20.91-3.8.02-5.13-1.12-4.21-4.21.28-.95.62-1.91.7-2.89.34-4.49-1.05-6.11-5.27-4.69-10.08,3.4-21.06,5.46-29.14,12.72-4.76,4.28-7.76,10.61-11.18,16.24-1.77,2.92-2.8,6.3-4.02,9.53-2.05,5.42-4.22,10.65-10.45,12.66-.96.31-1.74,1.34-2.49,2.14-1.8,1.89-3.54,3.84-5.71,6.21-2.3-2.82-4.21-5.17-6.93-8.5,0,2.51-.27,4.03.07,5.39.36,1.41,1.16,2.78,2.01,4,7.61,10.86,8.07,22.64,4.66,34.97-.27.97-.04,2.08-.04,3.12.41.2.81.4,1.22.6,1.96-2.46,3.91-4.93,5.87-7.39.31.05.62.11.94.16-.7,2.61-.62,5.94-2.24,7.68-4.03,4.33-8.68,8.14-13.37,11.78-4.53,3.52-9.43,6.56-14.15,9.83-.82.57-1.6,1.85-2.31,1.78-5.43-.48-5.94,3.74-7.03,7.23-2.92,9.32-5.65,18.7-8.58,28.01-.46,1.45-1.57,2.69-2.37,4.03-.67-.94-1.26-1.96-2.04-2.8-1.63-1.75-3.21-3.61-5.12-5-.76-.56-2.57-.4-3.5.13-4,2.26-5.86,7.6-4.61,12.45,1.27,4.93,2.64,9.84,3.71,14.82.2.93-.84,2.13-1.56,3.78,2.01,2.6,4.48,5.8,6.95,8.99.39-.08.78-.17,1.18-.25.17-3.45.05-6.95.6-10.34.55-3.4,1.78-6.7,3.02-11.17,1.13,2.68,2.63,4.53,2.48,6.25-.33,3.79,1.71,5.61,4.61,6.65,4.03,1.44,7.26,4.05,10.81,6.13,11.57,6.78,22.7,14.55,35.75,18.64,7.87,2.47,12.8,11.57,10.97,19.27-1.48,6.24-.71,7.64,5.45,9.9,1.36.5,2.75.93,2.82,1.71.55,3.17,1.11,6.34,1.8,10.3-5.4,2.65-11.63,5.76-17.92,8.76-2.78,1.32-3.61,6.12-.75,8.52,4.93,4.13,10.32,7.72,15.57,11.46.93.66,2.17.88,3.13,1.51,7.72,5.11,15.73,2.89,20.04-5.31,1.49-2.83,2.52-6.45,6.89-6.63.7-.03,1.37-1.64,1.97-2.57.42-.66.52-1.63,1.08-2.08,5.43-4.4,11.44-8.23,16.23-13.23,3.23-3.38,9.01-6.43,6.72-12.73-1.07-2.94-3.23-5.57-5.24-8.06-5.48-6.79-13.75-8.48-21.42-10.98-5.64-1.84-11.66-2.5-17.35-4.2-1.83-.55-4.41-2.73-4.44-4.2-.05-2.28-.04-5.63,4.39-5.78,3.8-.13,6.36-2.96,8.25-7.18-1.75-.17-2.96-.42-4.15-.36-1.3.07-2.75.92-3.86.57-2.66-.85-7.01-1.84-7.33-3.44-.65-3.26,3.29-3.86,5.93-4.7,11.1-3.56,22.22-7.04,33.3-10.63,2.65-.86,5.29-1.85,7.76-3.13,4.11-2.12,7.49-.22,11.02,1.46,1.58.75,3.31,1.77,4.94,1.71,4.95-.21,9.89-.88,14.83-1.38.98-.1,2.12-.68,2.91-.36,6.09,2.49,9.69-.6,12.86-5.27,2.08-3.06,4.59-5.33,8.91-5.04,1.47.1,3.62-1.58,4.53-3.03,2.8-4.44,2.92-9.3,1.65-14.43-1.63-6.6-2.73-13.33-4.06-20l-.1.11c2.75,7.26,4.98,14.76,8.36,21.71,5.29,10.86,3.12,22.17,3,33.33-.18,16.64,2.18,32.71,8.61,48.15,1.06,2.54,1.15,5.49,1.63,8.26.48,2.76-.77,6.15,2.96,7.69.35.15.78.98.65,1.27-2.31,5.46,3.85,7.09,5.03,11,.26.86,2.14,1.39,3.37,1.76,1.96.59,4,.92,6.38,1.44,7.23-9.73,14.5-19.76,16.63-32.6,1.49-8.99,3.32-17.94,5.51-26.78.97-3.9,3.2-7.48,5.04-11.61,7.13,10.77,4.31,23.91,9.05,34.92.58-.04,1.17-.09,1.75-.13,0-5.73.56-11.53-.15-17.17-.83-6.66-2.93-13.15-4.11-19.78-.43-2.41.17-5.02.34-7.53.49-7.46.98-14.92,1.51-22.38.39-5.53.68-11.08,1.38-16.57.19-1.47,1.39-3.15,2.62-4.08,3.28-2.48,4.73-7.11,9.73-7.88.79-.12,1.45-5.23,1.04-7.86-.55-3.55-1.89-7.08-3.45-10.34-1.46-3.03-.98-4.81,1.54-7.05,3.41-3.03,6.25-6.7,10.18-11.03-1.2,5.03-2.27,9.32-3.24,13.62-.78,3.48-1.44,6.99-2.16,10.48-.29.16-.58.32-.87.49.09.11.19.22.28.32.16-.31.32-.61.47-.92,6.31-2.14,6-8.45,8.33-13.12.96-1.93,2.4-3.62,3.38-5.54.6-1.17,1.42-2.84,1.02-3.82-2.48-6.06-4.97-12.17-8.08-17.92-2.41-4.45-2.43-6.27,1.78-9.09,4.22-2.83,4.11-7.82,4.96-11.83,3.66-17.4,6.74-34.92,9.72-52.45,1.11-6.51,1.35-13.16,1.99-19.74.55.01,1.11.03,1.66.04,0,6.32.23,12.65-.05,18.96-.54,12.43-.45,24.99-2.46,37.2-.97,5.88-.63,11.4-.48,17.06.15,5.59,1.2,11.15,1.44,16.74.18,4.1-.51,8.23-.42,12.33.03,1.48,1.19,2.95,1.83,4.42.92-1.4,2.4-2.7,2.68-4.22,1.87-10.18,2.86-20.57,5.38-30.57,2.02-8,5.82-15.55,8.83-23.31.72.17,1.45.34,2.17.51-.5,5.63-1.21,11.24-1.46,16.88-.56,12.28-.92,24.57-1.25,36.86-.03,1,.62,2.82,1.18,2.91,7.86,1.33,7.64,8.3,9.48,13.62,2.33,6.71,4.22,13.48,9.23,18.93,4.21,4.57,8.32,4.46,12.13-.86l-.12-.12c-.42,1.58-.84,3.17-1.43,5.39,6.96.77,9.21-6.61,14.11-7.67-4.75,6.25-6.17,13.55-4.93,21.78-7.79,2.4-14.86,5.9-18.72,14.49,9.63-.06,18.56,0,26.86-4.57,2.61-1.44,6.59-1.05,8.53-2.95,7.66-7.5,14.99-15.37,21.98-23.51,6.28-7.31,13-13.52,23.22-13.75,2.71-.06,5.44,1.11,7.88,1.66v1.61c-.11-.11-.21-.31-.33-.33-14.18-2.38-19.73.87-29.27,15.72-9.08,14.14-19.93,26.81-32.73,37.82-8.65,7.44-16.22,15.79-19.02,27.35-.31,1.29-.19,2.69-.26,4.03.42.19.84.39,1.26.58,7.26-7.98,14.65-15.84,21.74-23.96,7.14-8.16,17.42-13.01,23.34-22.41l-.09-.1c.52,1.22,1.05,2.44,1.57,3.66,1.17-.75,2.65-1.26,3.45-2.3,4.34-5.64,8.18-11.68,12.81-17.05,6.34-7.36,16.76-8.85,24.57-3.48,5.44,3.74,10.26,8.38,15.41,12.54,1.73,1.39,1.91,2.75.63,4.49-.58.79-.84,1.83-1.47,2.57-3.22,3.8-4.87,7.6.04,11.44-2.6,2.19-4.57,4.57-8.01,2.22-.63-.43-2.61-.03-3.04.61-3.68,5.41-9.15,4.81-14.52,4.63-6.12-.2-12.68,7.2-12.3,13.18.28,4.36.21,8.93-.78,13.15-2.58,11.05.3,21.13,3.69,31.51,4.15,12.71,7.27,25.76,10.6,38.73.54,2.09-.47,4.53-.23,6.75.56,5.08,1.46,10.12,2.35,16.09-16.31-1.91-32.72.23-48.24,4.49-3.95-12.09-7.58-23.71-11.57-35.22-2.81-8.1-6.08-16.04-9.18-24.04-1.17-3.03-2.89-4.58-6.7-4.46-3.22.1-6.5-1.64-10.22-2.69-1.03,5.07,1.19,9.52,2.93,13.74,1.67,4.05,5.09,7.36,6.97,11.36,1.99,4.23,3.95,8.8,4.37,13.36.76,8.44.28,16.98.52,25.47.17,6.05,1.23,6.92,7.07,6.54-.88,0-1.79-.17-2.62.03-8.72,2.08-17.37,4.49-26.14,6.27-10.54,2.13-21.14,3.99-31.79,5.5-34.12,4.86-68.44,5.5-102.84,4.59-10.08-.27-20.19,1.09-30.29,1.3-23.39.5-45.61-3.94-65.19-17.45-15.16-10.46-30.5-20.77-44.71-32.43-8.96-7.36-17.17-6.93-26.45-2.7-4.53,2.07-8.75,4.86-13.37,6.65-10.1,3.92-20.42,7.29-30.55,11.17-3.16,1.21-6.09,3.16-8.85,5.15-.85.62-1.5,3.19-1.02,3.7,2.51,2.67.52,3.98-1.17,5.58-3.27,3.1-3,6.86-1.64,10.62,1.27,3.52,4.13,4.5,7.65,4.13,4.54-.49,9.1-.74,13.61-1.42,9.91-1.49,19.79-3.18,30.02-4.1-3.95,1.72-7.89,3.45-11.85,5.14-8.57,3.65-17.17,7.21-25.7,10.96-2.26.99-4.36,2.41-6.39,3.84-2.09,1.47-1.81,3.39-.36,5.18.72.89,1.67,1.58,2.47,2.41,2.58,2.71,2.04,4.86-1.08,6.75-2.7,1.63-5.12,3.78-7.94,5.14-4.38,2.11-4.54,5.74-4.12,9.68.09.8.86,2.03,1.48,2.14.72.13,1.75-.62,2.42-1.22,1.99-1.79,3.86-3.7,6.18-5.13-.71,6.5.4,7.51,6.6,6.1,1.94-.44,3.93-.73,5.81-1.36,4.63-1.54,5.62-4.31,3.07-9.07,6.39-3.36,12.57-3.86,19.37-.81,3.27,1.47,7.25,1.49,10.93,1.88,7.86.82,15.74,1.5,23.62,2.12,1.97.15,3.98-.26,5.96-.2,3.57.11,6.87.23,10.12,2.77,3.84,3.01,8.54,4.98,12.98,7.16,7.12,3.5,14.38,6.72,21.51,10.21,7.05,3.45,14.2,1.82,20.82-.46,7.94-2.73,15.8-2.95,23.88-2.28,2.37.2,4.7.79,7.02,1.52-59.4,14.36-119.79,11.65-179.97,12.27-.15-.58-.31-1.15-.46-1.73,2.94-1.79,5.88-3.58,9.77-5.95-4.21-.68-7.24-1.41-10.3-1.6-7.01-.43-7.02-.33-10.25-6.15,1.88-2.79,3.85-5.52,5.59-8.4.51-.84.33-2.1.46-3.17-1.06-.07-2.17-.36-3.17-.15-2.9.61-5.73,1.93-8.63,2.04-7.81.29-15.63.1-24.63.1,13.35-30.59,8.26-58.43-10.61-84.32-2.57-3.53-5.31-6.96-9.23-8.97-.51.4-1.02.8-1.53,1.2,1.44,2.17,2.75,4.44,4.34,6.49,12.45,16.07,18.95,34.45,18.79,54.56-.07,9.39-3.39,18.78-5.45,28.12-.26,1.16-1.78,2.85-2.79,2.91-12.44.69-24.9,1.12-37.21,1.61-1.96-7.2-4.07-7.82-9.53-3.31-1.14.95-2.13,2.24-3.44,2.79-4.36,1.84-8.52-.36-8.76-5.14-.4-7.95-3.2-14.91-7.48-21.37-1.56-2.36-1.86-4.42-.72-6.95,1.76-3.91.62-7.37-1.69-10.76-2.05-3.01-4.43-6.03-5.51-9.42-3.7-11.55-12.47-15.18-23.34-16.05-1.92-.15-3.82-.55-6.41-.93,9.85-15.33,17.28-30.93,21.22-48.07-8.58-6.28-17.23-12.25-21.17-22.51-.64-1.66-.9-3.92-.31-5.52,2.82-7.6,6.07-15.03,8.98-22.6.75-1.96.84-4.18,1.18-6.29.77-4.64.62-9.63,5.69-12.38.79-.43,1.51-2.02,1.39-2.96-1.66-12.59,5.01-23.44,7.09-35.22.99-5.58,5.01-9.13,7.22-13.82.9-1.9,1.29-4.03,1.94-6.05,1.09-3.38,1.75-7,3.39-10.1,4.61-8.74,9.49-17.36,14.55-25.84,1.89-3.16-.32-5.3-.96-7.86-.34-1.38-.83-2.72-1.54-5.03,1.7.97,2.32,1.22,2.81,1.63,4.7,3.82,9.35,3.01,10.59-2.72.61-2.83-.96-7.18-3.08-9.31-4.25-4.29-4.8-9.1-4.77-14.54.02-4.47-.62-8.93-.76-13.41-.05-1.57.51-3.17.65-3.95,3.3.15,6.13.28,8.97.42q-.5,4.37,5.01,2.4c-2.13-.99-3.6-1.67-5.07-2.35-1.31-1.09-2.66-2.13-3.93-3.27-1.77-1.58-4.04-3.03-2.23-6.22,6.05,3.17,11.84,6.25,10.88,15.02,7.72-4.13,8.16-11.17,8.69-17.36.49-5.73-4.45-9.1-9.44-13.09-.4,5.47-.72,9.99-1.09,15.1-1.82-1.04-3.36-1.6-4.47-2.62-2.47-2.27-5.11-4.24-2.88-8.61,2-3.91,2.74-8.46,3.84-12.07,2.66-2.91,5.83-5.35,7.59-8.56,2.13-3.89,2.81-8.54,4.62-12.64.9-2.04,2.92-3.56,4.39-5.36,1.75-2.13,4.52-4.37,1.98-7.22-1.42-1.59-4.09-2.07-6.88-3.37.48-2.95,1.15-7.08,1.81-11.21-.5-.18-1-.37-1.49-.55-6,3.81-10.67,9.04-14.77,14.81-.43.61.03,2.23.59,3.02.39.56,1.68.74,2.52.64.83-.09,1.61-.73,3.26-1.55-1.15,4.93-.39,9.57-5.53,11.78-.56.24-.56,2.01-.66,3.09-.48,5.16-3.57,7.5-8.69,6.42-2.48-.52-4.74-.96-6.84,1.29-.83.88-2.67,1.26-4,1.16-5.13-.35-10.26-.84-15.34-1.61-1.49-.23-2.81-1.57-4.21-2.39,1.38-.71,2.75-2.03,4.13-2.04,7.97-.06,14.27-3.92,20.33-8.42,2.57-1.9,3.38-4.37,2.2-7.47-1.23-3.23-.32-5.43,2.72-7.52,12.63-8.71,17.53-21.94,20.21-36.26.31-1.68-.17-3.68-.78-5.34-1.45-3.94-4.09-4.36-7.22-1.56-7.47,6.68-11.18,15.52-15.3,25.26-1.14-2-2.28-4-3.57-6.24-.4.62-.9,1.4-1.08,1.69.78-12.16,6.51-23.17,13.16-33.72,4.17-6.62,4.66-12.89.22-19.41-.37-.54-1.29-1.19-1.18-1.5,2.91-7.93-5.26-12.54-5.79-19.41-.06-.81-.44-1.59-.74-2.63h3.49c.34-4.75.67-9.34.94-13.14,2.86,1.51,6.33,3.35,10.74,5.69v-6.14c3.02,1.91,2.39,7.19,6.99,5.92.27,3.35,1.42,6.03,5.36,7.1,2.24-4.75,1-9.14-1-13.3-1.35-2.82-3.38-5.3-5.07-7.96-1.99-3.12-4.38-6.08-5.82-9.45-3.07-7.2-4.93-15-8.58-21.87-6.48-12.15-2.4-24.05-.63-36.09.17-1.14.86-2.27.79-3.37-.06-.96-.86-1.87-1.33-2.8-.72.57-1.72.99-2.11,1.74-2.1,4.01-4.05,8.09-6.72,11.92,1.3-7.61,2.27-15.3,4-22.81,1.3-5.66,10.35-11.48,16.15-11.65,3.49-.11,7.2-.4,10.38-1.68,4.33-1.73,8.38-2.9,12.89-1.08.62.25,1.48-.07,2.72-.16-.96-.86-1.41-1.26-1.89-1.69,2.66-.25,5.29-.4,7.9-.78.78-.11,1.47-.87,2.19-1.33-.57-.71-1-1.78-1.74-2.06-2.82-1.06-5.74-1.87-8.45-2.71,7.14-2.88,13.75.37,20.51,2.69,1.51.52,3.24.42,4.87.6-.38-1.83-.15-4.31-1.26-5.37-3.51-3.33-7.33-6.4-11.38-9.05-6.04-3.94-12.95-4.69-20.02-4.37l.1.1c.5-1.54,1.18-3.04,1.44-4.62.25-1.47.05-3.02.05-5.19,6.5-2.11,11.06,2.73,16.01,6.28.3-.33.6-.66.89-.98-.78-1.22-1.45-2.52-2.37-3.61-.49-.58-1.8-.59-2.09-1.17-2.64-5.25-6.56-5.53-11.51-3.56-1.29.52-3.16-.4-4.95-.69,7.28-3.05,8.06-5.6,3.41-10.54,5.07-1.58,7.87-9.09,4.97-13.6-3.16-4.92-6.45-9.69-5.2-16.11.95-4.84,6.84-9.8,11.74-9.17,3.69.48,6-.54,7.03-4.36.6-2.21,1.88-4.23,2.73-6.38,2.41-6.08,6.61-10.2,12.91-12.11l.09-.12c-7.03,4.98-12.48,11.55-13.18,20.07-.56,6.75,1.39,13.72,2.46,20.56.15.94,1.59,1.93,2.65,2.33.37.14,1.79-1.31,2.04-2.22,1.91-6.96,3.65-13.97,5.39-20.74,3.97,2.53,3.8-1.53,4.63-3.54.95-2.31,1.46-4.79,2.17-7.19,2.95,5.35,5.66,10.26,8.38,15.17.37-.16.75-.32,1.12-.48.16-.92.33-1.85.53-3.02,1.41,3.58,2.74,6.96,4.09,10.38.55-.48,1.02-.9,1.5-1.32.16.21.31.43.47.64.04-.14.08-.28.13-.42-.23-.03-.46-.07-.69-.1-.06-1.3.27-2.79-.25-3.86-2-4.11-2.11-8.02.26-12.02.46-.77.26-1.94.39-3.29.81,1.31,1.48,2.4,2.6,4.23,2.81-8.08,3.73-17.43,15.19-16.14,0,0-.1-.1-.1-.1-.6,1.44-1.19,2.87-2.11,5.08,1.45-.39,2.6-.38,3.28-.94,2.95-2.41,5.61-5.21,8.67-7.46,3.25-2.38,6.85-4.3,10.29-6.42,0,0,.06-.12.06-.12Zm-74.13,571.85c.2.31.39.62.59.92.1-.13.21-.25.31-.38-.33-.15-.65-.3-.98-.45.13-.94.72-2.24.31-2.76-3.26-4.14-6.01-9.26-10.26-11.95-9.26-5.85-11.9-13.93-11.37-24.07.29-5.57.05-11.16.05-16.75-6.74,10.28-7.1,25.46-1.26,35.68,2.63,4.59,5.19,9.29,7.12,14.2,1.43,3.63,1.31,7.56,3.9,11.17,2.67,3.72,5.07,2.65,8.08,1.91,3.17-.79,3.3-2.64,2.13-5.27-.2-.46.88-1.48,1.37-2.24Zm17.01-36.01c.19.31.37.61.56.92.11-.12.22-.24.34-.36-.33-.16-.65-.32-.98-.47,1.72-3.01-.48-4.89-1.97-7.04-3.59-5.18-8.83-9.49-9.19-16.52,1.21-.19,2.22-.36,3.24-.52.08.36.17.73.25,1.09.2-.16.4-.32.6-.49-.31-.18-.61-.36-.92-.54-.9-4.28-1.75-8.57-2.69-12.85-2.18-9.9-2.5-19.75.53-29.57.25-.79-.18-2.4-.79-2.75-2.88-1.63-1.36-3.17-.17-4.79,1.95-2.66,4.01-5.25,5.82-8.01.37-.56.1-2.08-.42-2.52-.51-.44-1.93-.41-2.56,0-1.23.8-2.06,2.23-3.31,2.99-1.44.88-3.16,1.33-5.46,2.25-1.14,2.05-2.76,4.97-4.72,8.51-.77-2.03-1.13-2.98-1.58-4.17-8.33,11.95-11.52,35.24-5.55,42.29.22-2.5.4-4.59.59-6.68-.05.02-.11.05-.45.2.38,1.02.77,2.06,1.16,3.09.27-.05.53-.1.8-.15.19-1.04.37-2.08.56-3.11-.39.13-.78.26-1.18.39,3.51,7.23,6.95,14.49,10.57,21.66.67,1.33,3.21,2.83,2.97,3.33-2.45,5.1,2.26,7.77,4.1,10.88,2,3.38,5.13,6.9,9.49,8.33.14-2.27.24-3.82.34-5.37Zm15.02-69.85c1.69,20.31,7.59,40.23,6.64,60.83-.43.12-.86.24-1.29.37-6.41-16.83-12.82-33.67-19.23-50.5-.45.07-.89.14-1.34.21,0,2.63-.51,5.39.1,7.87,1.33,5.39,2.99,10.73,4.96,15.93,3.64,9.6,6.84,19.48,11.64,28.49,4.12,7.73,7.31,14.86,5.4,23.94-1.7,8.06-3.41,15.83-8.98,22.28-2.34,2.71-4.17,5.86-6.23,8.82.42.38.85.75,1.27,1.13,2.86-2.31,5.71-4.62,8.57-6.92.3.13.61.27.91.4-3.19,7.57-6.38,15.14-9.57,22.72.43.25.85.51,1.28.76,1.28-1.5,2.93-2.81,3.78-4.52,13.52-27.41,18.04-56.35,14.46-86.62-1.84-15.6-4.98-30.86-12.38-45.18Zm138.59-166.73c-1.35.37-2.82.5-4.03,1.13-9.19,4.82-16.54,11.98-23.91,19.09-1.18,1.13-2.26,2.5-2.94,3.96-.47,1-.61,2.69-.06,3.48.58.82,2.15,1.23,3.32,1.3,3.45.22,6.92.27,10.37.23,2.09-.03,4.46.24,6.2-.64,8.37-4.22,16.03-9.47,19.83-18.52.77-1.84.44-4.46-.15-6.49-1.34-4.65-4.94-4-8.64-3.54Zm-176.29,75.04c-1.82-6.4-2.79-11.66-4.85-16.45-1.56-3.62-5.26-5.94-9.35-4.96-3.64.88-5.34,3.8-5.23,7.95.07,2.52-1.01,5.18-2,7.6-2.63,6.49-2.59,12.56,2.03,18.22.93,1.13,1.57,2.51,2.25,3.83,2.77,5.36,7.15,5.95,10.04.7,3.05-5.55,4.98-11.71,7.11-16.9Zm-20.11-188.9c-6.46,8.54-7.62,17.06-4.41,25.26,2.41,6.16,9.4,8.53,15.18,12.92,1.56-14.85-4.22-26.07-10.77-38.18Zm75.45,119.86c-5.58,8.01-6.33,21.49-1.76,28.59,1.5,2.33,2.95,2.86,5.21,1.09,11.64-9.1,7.27-22.29-3.45-29.68Zm-19.11,61.82c2.01-1.93,3.55-3.08,4.65-4.56,1-1.36,2.37-3.24,2.11-4.61-1.13-5.94-2.88-11.76-4.25-17.65-.82-3.53-2.52-5.2-6.19-3.28-.94-2.43-1.58-4.51-2.56-6.41-.34-.65-1.51-1.01-2.37-1.17-.32-.06-1.2.84-1.18,1.26.25,3.8.18,7.72,1.13,11.36,1.12,4.26,3.21,8.25,4.77,12.4.27.73-.04,1.68-.06,2.09-1.26-.49-2.35-.92-3.59-1.4-2.25,7.97,4.84,8.62,7.54,11.96Zm16.62,82.67c-2.2,10.94-3.17,20.71.61,30.62.22-1,.44-2,.61-2.73.85,3.55,1.73,7.28,2.68,11.24,6.34-3.64,3.7-30.91-3.89-39.12Zm-76.62,134.76c.02,8.05,6.34,10.55,10.6,14.76,4.69,4.63,9.32,9.31,13.98,13.96.69-1.53.46-2.43.29-3.34-1.2-6.38-7.06-10.36-8.26-17.1-.56-3.18-3.94-8.04-9.75-5.85-.6.23-1.61-.85-2.49-1.14-1.6-.54-3.24-.96-4.37-1.28Zm26.4-240.06c-.66-.08-1.32-.16-1.98-.25-.46,3.39-1.53,6.84-1.23,10.17.37,4.21,1.73,8.36,2.92,12.46.41,1.41,1.48,3.55,2.41,3.64,1.24.12,2.86-1.24,3.9-2.35.82-.88,1.26-2.33,1.4-3.58.93-7.97-2.91-14.16-7.41-20.08Zm90.86,46.44c-1.98,1.14-3.78,1.69-4.86,2.89-2.76,3.08-2.33,10.48.68,12.5,2.93,1.97,6.1,3.58,9.16,5.35,2.79-6.39-.92-18.81-4.98-20.74Zm-27.05-82.96c4.64-3.1,7.63-6.89,7.13-12.37-.3-3.29-1.26-6.61-4.87-8.13-7.74,11.1-8.3,11.9-2.25,20.51Zm31.02,188.14c-.25-.07-.49-.14-.74-.21-.03-.66.08-1.37-.12-1.98-.58-1.77-1.28-3.51-1.93-5.25-1.12,1.56-2.91,3-3.24,4.71-1.39,7.08-2.38,14.24-3.39,21.39-.16,1.11.33,2.32.51,3.48,1.1-.74,2.88-1.26,3.19-2.25,2.08-6.57,3.85-13.25,5.71-19.88Zm-103.42-437.87l1.43-.65c.65-4.65,1.59-9.28,1.86-13.95.25-4.35-2.09-5.79-6.3-4.49-4.26,1.31-6.5,5.47-4.33,9.4,1.94,3.51,4.85,6.48,7.34,9.69Zm163.83,241.33c4.86-2.69,9.08-4.78,12.98-7.35.99-.65,1.54-2.96,1.24-4.27-.2-.88-2.19-1.76-3.47-1.93-5.74-.76-11.51,5.67-10.74,13.55Zm89.41,28.51c.4-.1.8-.2,1.2-.3,0-6.57.09-13.15-.08-19.72-.03-1.25-1.05-2.48-1.61-3.71-.91.99-2.21,1.82-2.68,2.99-2.85,7.09-1.95,14.09.93,21.26.46-.9.81-1.58,1.13-2.2.45.68.78,1.19,1.11,1.69Zm-278.05-148.01c5.43-9.48,5.79-21.24.81-25.78-2.5,8.48-2.92,16.5-.81,25.78Zm16.83,110.73c6.1-3.5,5.24-14.32-1.54-21.4-1.49,7.55-.51,14.38,1.54,21.4Zm-13.65,156.04l1.12-.52c-2.27-6.88-4.55-13.75-7.12-21.54-3.82,6.45-.66,16.18,6.01,22.06Zm26.18-183.68c-2,2.28-4.42,3.8-4.74,5.68-.66,3.87-.2,7.93-.2,11.92,5.59-4.82,6.23-10.47,4.94-17.59Zm-10.55-5.76c5.11-6.04,5.93-9.54,2.97-12.7-6.34,3.77-7.46,8.57-2.97,12.7Zm152.95,43.32c5.74,1.79,8.7-1.59,12.02-3.81.55-.37.49-1.65.71-2.52-.9-.1-2.05-.62-2.66-.25-3.19,1.91-6.25,4.05-10.06,6.57Zm-175.29-129.79c-.47.02-.93.03-1.4.05.33,5.85.66,11.71.99,17.56,4.83-6.12-.05-11.73.4-17.61Zm305.07,89.68h.66v-2.36h-.66v2.36Zm-141.17-215.62c-.25.11-.51.21-.76.32.14.24.3.7.4.68.38-.06.75-.26,1.12-.41-.25-.2-.5-.4-.76-.59Zm-130.9,217.12c.22-.21.44-.42.66-.63l-.62-.64c-.26.28-.52.56-.78.83.24.14.49.28.75.43Zm87.55-246.89c-.3-.1-.54-.21-.79-.23-.1,0-.22.19-.33.3.18.15.38.44.53.42.2-.03.38-.3.58-.49Zm269.89,494.48c.11-.1.29-.19.3-.3,0-.1-.16-.22-.25-.33-.1.16-.2.31-.3.47.09.06.19.11.26.16Zm-371.74,3.8l-.23-.2-.04.34.27-.14Zm31.44.65c-.05.1-.12.22-.18.34.23.01.46.02.68.03-.05-.12-.07-.28-.16-.36-.06-.06-.22-.01-.34-.01Zm-42.57,69.58c.13-.13.24-.23.35-.34-.21-.1-.42-.25-.64-.29-.08-.02-.21.19-.31.3.21.11.41.23.6.33Zm-25.01-264.95c.13-.13.24-.24.36-.36-.22-.11-.44-.26-.67-.31-.08-.02-.22.2-.33.31.22.12.43.24.64.36Zm6.17-77.48c-.11-.11-.22-.23-.33-.34-.11.11-.22.23-.33.34.16.11.33.23.49.34.06-.11.11-.23.17-.34Zm335.58-3.14c-.05.1-.11.21-.16.31.2,0,.39.01.59.02-.04-.11-.07-.24-.14-.31-.05-.05-.19,0-.29-.02Z"/>
  <path class="c" d="m931,911.99c-.21.96-.92,2.35-.53,2.79,1.46,1.66,3.27,3,4.66,4.83-6.66-.47-9.99-5.65-13.97-9.71-4.57-4.65-9.07-8.95-15.78-10.52-2.54-.6-4.97-2.67-6.92-4.61-4.06-4.02-9.05-4.1-13.45-2.24-7.83,3.3-15.98,3.94-24.1,3.93-20.64,0-41.29-.66-61.93-1.12-17.81-.4-35.61-.87-53.41-1.39-5.44-.16-10.88-.57-16.23-.86,2.15-8,7.67-14.93,7.84-24.47-3.86.34-7.11.57-10.34.92-2.96.32-5.92,1.19-8.87,1.12-18.63-.44-37.26-1.17-55.89-1.57-3.26-.07-5.26-1.52-7.09-3.77-5.32-6.56-10.66-13.1-15.92-19.7-.56-.7-.62-1.79-1.28-3.84,8.04-1.2,15.57-2.75,23.19-3.37,11.73-.95,23.5-1.61,35.27-1.76,13.2-.17,26.4.38,39.61.59.98.02,2.13.11,2.93-.32,6.83-3.61,14.14-3.32,21.58-3.48,6.26-.14,12.51-1.82,18.71-3.13,10.27-2.16,20.43-4.98,30.77-6.74,8.62-1.47,17.43-1.76,26.14-2.72,4.7-.51,9.37-1.32,14.05-2,7.77-1.13,15.53-2.32,23.31-3.36,3.16-.43,6.35-.69,9.54-.72.85,0,2.19.93,2.49,1.74,2.76,7.38,9.7,7.71,15.71,8.96,3.9.81,8.67,2.37,11.78-2.34,1.26.87,3.62,1.76,3.61,2.61-.16,9.44-.24,18.92-1.3,28.29-.57,5.03-4.77,8.1-9.45,10.07-4.58,1.92-9.15,3.89-13.66,5.98-1.22.56-2.21,1.62-3.2,3.14,13.32,4.24,27.24,3.28,40.21,6.52-.77.75-1.93,1.88-3.1,3.02,1.45.48,3.24,1.07,5.14,1.7-1.04.33-1.94.62-3.32,1.06,1.88.8,3.3,1.4,4.95,2.1-1.27.96-2.63,1.99-4.02,3.04,7.7,7.54,18.55,10.23,28.01,15.38,9.65,5.25,19.52,10.08,28.87,15.95-4.97-1.74-10-3.31-14.88-5.26-3.91-1.57-7.29-4.14-12.13-2.28-1.79.69-5.07-.77-6.9-2.23-7.03-5.61-13.84-3.34-20.78-.14-.09-.34-.18-.68-.27-1.02-.23.15-.45.29-.68.44.35.17.69.34,1.04.5Z"/>
  <path class="c" d="m256.94,840.96c4.4-.09,6.19-3.11,6.01-6.71-.18-3.52-.95-7.42-2.73-10.38-6-9.96-12.72-19.47-18.87-29.34-6.98-11.21-13.76-22.54-20.37-33.97-4.48-7.74-10.97-13.29-18.39-17.86-1.34-.83-3.53-.92-5.14-.55-2.85.66-4.16.36-6.08-2.52-7.92-11.92-16.4-23.48-24.87-35.03-4.32-5.89-9.14-11.42-13.56-17.24-1.97-2.6-4.64-5.1-3.14-9.08.23-.6-.83-1.66-1.25-2.54-1.68-3.48-3.34-6.97-4.32-10.82,2.37,3.95,4.73,7.89,7.33,12.23,1.21-.96,2.53-1.68,3.39-2.76,1.95-2.44,4.63-2.81,6.47-.37,9.5,12.58,18.84,25.29,28.39,37.84,4.91,6.46,10.45,12.45,15.13,19.06,3.19,4.5,4.97,9.98,8.11,14.53,6.89,10,13.97,19.89,21.5,29.42,4.1,5.19,5.98,4.71,9.78-.57,2.37-3.28,6.13-2.89,8.38-1.25,4.16,3.04,7.73,7.02,11.14,10.95,3.58,4.13,4.31,8.93,2.97,14.45-1.38,5.7-.53,6.42,4.15,7.58.8,5.16,1.45,10.02,2.32,14.84.69,3.77,1.01,7.28-3.77,9.24,4.88,2.4,1.77,5.14.14,5.96-4,2-3.35,4.45-2.19,7.67,2.29,6.35,4.34,12.78,6.49,19.19.5,1.51.97,3.03,1.46,4.54-.38.34-.77.69-1.15,1.03-2.96-2.36-6.21-4.45-8.81-7.17-2.31-2.42-4.45-3.04-7.47-1.82-4.43,1.78-8.93,3.39-13.4,5.07-.03.42-.07.85-.1,1.27,3.04.5,6.09.99,9.13,1.49.03-.43.06-.87.09-1.3-2.02.27-4.04.77-6.07.79-24.46.2-48.93.37-73.39.43-2.11,0-4.29-.6-6.3-1.3-1.1-.39-2.46-1.41-2.78-2.43-1.73-5.52-5.89-7.33-11.07-8.54-12.07-2.83-24.12-.77-36.17-.45-3.61.09-7.21.39-10.84,1.41,1.78,0,3.58.15,5.34-.02,11.87-1.16,23.73-2.46,35.6-3.58,6.19-.59,9.32-4.79,8.64-10.65-.85-7.28-2.58-13.87-8.09-19.19-1.62-1.57-2.19-4.23-2.47-6.96,1.61,1.22,3.08,2.75,4.87,3.56,1.95.88,4.26.94,6.32,1.61,3.66,1.19,7.27,2.57,11.88,4.23,0-1.41.68-3.63-.13-4.85-2.34-3.5-4.95-6.96-8.07-9.75-3.15-2.82-4.57-5.89-4.46-10,.19-6.89-.39-7.24-5.35-4.69.1-4.8.03-10.05.39-15.27.23-3.29,1.11-6.54,1.7-9.81-.5.59-1,1.19-1.5,1.78,7.84,6.91,15.47,14.09,23.61,20.64,4.15,3.34,9.01,6.03,13.92,8.16,3.66,1.59,5.44-.48,4.12-4.15-2.79-7.79-5.77-15.52-8.65-23.28-.52-1.39-1.4-2.93-1.18-4.25.35-2.11,1.21-4.29,2.49-5.96.3-.4,3.39.76,4.7,1.81,4.95,3.95,9.84,8.01,14.45,12.34,2.11,1.98,3.53,4.69,5.26,7.07.19.27.28.7.53.83,9.08,4.63,9.47,15.29,15.36,22.2,3.07,3.61,5.75,6.67,10.71,8.13,4.66,1.37,8.68,4.88,13.23,7.59-5.06,4.26-3.87,11,1.29,13.31,2.03.91,3.62,2.81,5.41,4.25l-.87.5c.12.08.25.17.37.25.14-.27.29-.54.43-.81Zm-50.84-100.01c-.01.48-.02.96-.04,1.45.26-.03.52-.06.78-.1-.29-.43-.57-.86-.86-1.29-.82-1.2-1.65-2.4-2.47-3.59-.99-1.36-1.99-2.73-2.98-4.09-.39.34-.78.68-1.17,1.01,1.13,1.29,2.26,2.58,3.39,3.87l3.34,2.75Zm-41.19-54.52c6.06,11.65,32.35,46.16,36.13,46.78-10.94-15.68-21.51-30.9-32.21-46.02-.46-.65-2.14-.45-3.92-.76Z"/>
  <path class="c" d="m849.24,983.84h33.35c0-.47,0-.94,0-1.4-20.05-.63-40.11-1.14-60.16-1.91-19.82-.76-39.63-1.78-59.45-2.69,0-.54.02-1.08.02-1.62,9.39-.27,18.77-.51,28.16-.83,13.47-.47,26.95-1.48,40.41-1.38,13.45.11,26.9,1.24,40.34,2.06,8.09.5,16.15,1.64,24.24,1.85,15.44.39,30.9.69,46.34.3,9.55-.24,19.04-2.06,28.59-2.74,5.28-.38,10.62.11,15.93.21.01.62.02,1.25.04,1.87h-27.03c0,.65,0,1.3,0,1.95h44.75c0,.47.02.94.03,1.42-5.54.52-11.16,1.9-16.59,1.35-8.13-.82-13.3,1.69-16.64,9.25-2.51,5.69-6.14,10.88-9.01,16.43-1.81,3.51-4.24,3.86-7.73,2.9-10.78-2.97-21.61-5.73-32.44-8.54-4.96-1.29-9.92-2.56-14.91-3.72-7.83-1.82-15.69-3.57-23.54-5.29-7.29-1.59-14.58-3.17-21.89-4.62-2.75-.54-5.59-.6-8.35-1.09-1.62-.29-3.16-1.01-4.74-1.54l.28-2.19Zm102.1-.01c0-.46.01-.92.02-1.38h-65.11c0,.4,0,.81,0,1.21,21.7-.11,43.39,2.44,65.09.17Z"/>
  <path class="c" d="m502.64,247.45c-8.44,1.27-15.66,4.57-21.72,12.28,2.49.28,4.15.96,5.45.54,4.98-1.64,10.04-3.27,14.69-5.64,2.96-1.51,4.98-1.2,7.13.84,3.63,3.43,7.07,7.08,10.89,10.28,2.96,2.47,3.03,4.29.09,6.74-3.15,2.62-6.54,5.74-6.32,9.98.3,5.6-1.25,9.39-6.42,11.67-.48.21-.7,1.42-.72,2.17-.18,4.71-1.62,6.69-5.76,6.07-7.79-1.16-15.92-1.3-22.48-6.89-3.02-2.57-6.47-2.57-10.69-1.86-3.45.59-7.82-1.8-11.19-3.84-3.21-1.94-7.48-3.98-6.87-8.93.74-6.03,1.23-12.38,6.57-16.5,9.39-7.25,18.72-14.63,28.57-21.21,3.81-2.54,8.95-3.89,13.55-4.07,1.92-.07,4.01,4.34,6.02,6.71-.26.56-.52,1.12-.78,1.69Zm-5.65,19.04c-.83,1.09-1.63,1.71-1.78,2.47-.1.5.72,1.19,1.13,1.79.74-.68,1.62-1.27,2.14-2.09.15-.24-.75-1.13-1.48-2.17Z"/>
  <path class="c" d="m531.79,603.43c0-8.87-.37-17.52.18-26.11.23-3.55,2.05-7.23,6.11-8.75,2.98-1.12,5.77-1.8,7.36,2.05.31.76.66,1.65,1.27,2.12,7,5.44,7.29,13.48,8.1,21.22.13,1.29-1.12,3.5-2.29,4.01-6.43,2.83-12.64,6.74-20.73,5.46Z"/>
  <path class="c" d="m649.47,323.21c-1.68-10.03-7.59-18.24-15.38-25.17-5.22-4.65-10.99-8.68-16.35-13.19-1.85-1.56-3.23-3.69-4.75-5.61-3.45-4.36-6.85-8.76-9.95-13.87,4.86,2.96,9.9,5.65,14.52,8.93,7.27,5.16,14.78,10.17,21.18,16.3,4.72,4.51,8.27,10.14,11.19,16.51,2.99,6.54-.99,11.25-.46,16.12Z"/>
  <path class="c" d="m658.15,530.87c.91-3.06,1.82-6.12,2.73-9.17.21.05.42.09.63.14.51,4.45,1.67,8.94,1.37,13.33-.31,4.59-2.21,9.04-3.07,13.62-.85,4.49-1.27,9.07-1.91,13.8-.55-1.2-.91-1.99-1.53-3.36-.84,1.87-1.41,3.13-1.65,3.66-.06-.36-.25-1.57-.56-3.49-1.36,1.44-2.27,2.41-3.82,4.05-1.49-3.12-3.7-5.86-3.95-8.76-.3-3.49.64-7.28,1.81-10.67,2.17-6.32,4.89-12.44,7.38-18.65.43.13.86.27,1.29.4.13,1.71.25,3.42.38,5.13.3,0,.61-.02.91-.03Z"/>
  <path class="c" d="m838.7,954.18c-10.46-3.42-20.95-6.72-31.36-10.3-4.64-1.59-9.16-3.58-13.6-5.66-2.58-1.21-4.2-3.19-2.54-6.35,1.66-3.18,4.03-1.67,5.95-.72,14.1,6.99,28.14,14.11,42.19,21.19l-.64,1.83Z"/>
  <path class="c" d="m550.44,319.32c-.7,1.07-1.3,2.89-2.52,3.54-.8.43-2.78-.51-3.75-1.37-5-4.47-9.96-9.01-14.67-13.79-1.04-1.06-1.64-3.35-1.24-4.73.24-.84,2.78-1.35,4.31-1.41,7.13-.26,11.29,4.92,15.47,9.39,1.65,1.77,1.56,5.18,2.4,8.38Z"/>
  <path class="c" d="m782.93,595.96c5.45-8.08,10.25-16.71,16.55-24.06,5.18-6.03,12.4-8.35,21,2.41-2.95.68-5.56,1.62-8.23,1.85-10.07.85-17.69,5.31-23.02,14.05-1.41,2.32-4.24,3.78-6.41,5.63l.12.12Z"/>
  <path class="c" d="m594.97,272.97c-14.11-4.99-29.16-8.17-39.56-21.17,1.9.34,3.62.51,5.27.97,11.71,3.29,22.52,8.4,31.87,16.29,1.11.94,1.6,2.61,2.38,3.94l.05-.03Z"/>
  <path class="c" d="m291.38,281.15c.56,5.65,1.89,11.35,1.49,16.93-.67,9.35,1.15,17.85,5.7,25.9.31.55.52,1.15.91,1.99-9.05-5.22-15.9-28.29-9.69-44.62.53-.07,1.06-.13,1.59-.2Z"/>
  <path class="c" d="m556.83,164.21h9.68c-1.18.9-3.29,2.52-5.49,4.2,3.91,3.94,7.16,4.86,11.23,2.85.74-.36,3.44,1.19,3.38,1.6-.83,5.86,4.71,7.45,7.3,12.04-6.99-2.79-13.49-5.39-19.99-7.98l.11.14-2.14-1.08.15.1c-1.44-2.52-2.88-5.05-4.51-7.91.07-.76.23-2.42.38-4.07l-.12.12Zm2.32,6.44c.13.13.24.24.36.36.11-.22.26-.44.31-.67.02-.08-.2-.22-.31-.33-.12.22-.24.43-.36.64Z"/>
  <path class="c" d="m538.05,220.94c6.53,1.56,10.47,6.66,15.01,10.95,4.94,4.68,9.92,9.32,15.15,14.22-1.53-.43-3.22-.53-4.48-1.32-6.61-4.11-13.56-7.86-19.47-12.83-3.03-2.54-4.14-7.35-6.12-11.14l-.08.11Z"/>
  <path class="c" d="m425.99,66.99c-2.98,1.44-5.96,2.87-9.39,4.53,1.63-4.68,1.59-4.78,13.92-10.93,5.07-2.53,10.21-5.79,16.56-2.52-3.39,3.15-6.67,6.19-9.53,8.85-.66-.83-1.79-2.27-2.91-3.7-2.77,2.29-5.55,4.57-8.05,6.63-.1-.44-.39-1.71-.68-2.98.27.02.54.05.82.07-.08-.21-.16-.43-.24-.64-.16.23-.33.45-.49.68Z"/>
  <path class="c" d="m704.32,575.27c-1.84-4.69-3.19-7.72-4.21-10.86-1.21-3.73,3.54-9.04,7.34-8.38,2.49.43,4.65,4.91,3.26,8.2-1.49,3.54-3.84,6.72-6.38,11.04Z"/>
  <path class="c" d="m556.94,164.09c-5.88,2.73-9.56-1.32-14.23-4.92,3.71-.53,6.85-.83,9.92-1.49,1.69-.36,3.28-1.27,4.85-2.05,2.46-1.21,4.87-3.43,7.27.05-2.65,2.85-5.29,5.69-7.94,8.52,0,0,.12-.12.12-.12Z"/>
  <path class="c" d="m462.97,99.97c7.29-8.69,14.59-17.38,21.88-26.08,0,0-.11-.04-.11-.04-2.56,6.03-5.11,12.07-7.68,18.13,2.55-1.43,5.58-3.13,9.17-5.15-2.88,4.32-17.64,12.29-23.38,13.03l.11.1Z"/>
  <path class="c" d="m374.98,94.81c.92-.08,2.15.19,2.71-.3,3.49-3.09,6.83-6.35,10.22-9.55,0,0-.12-.11-.12-.11-1.56,7.79-3.12,15.59-4.54,22.72-.69-2.38-1.63-5.66-2.7-9.38-.52,1.44-.96,2.66-1.4,3.89-1.5-.85-2.98-1.7-4.37-2.49.12-1.7.22-3.19.33-4.68,0,0-.13-.1-.13-.1Z"/>
  <path class="c" d="m387.91,84.96c5.58-8.7,11.27-17.28,22.19-21.33-2.27,5.24-5.81,8.61-10.15,11.28,0,0,.11.13.11.13-.28-.24-.56-.47-.85-.71-.1.24-.19.48-.29.72l.1-.13c-2.47,2.46-4.88,4.99-7.44,7.35-1.11,1.03-2.53,1.73-3.8,2.58l.12.11Z"/>
  <path class="c" d="m618.1,387.66c-9.12-7.8-12.55-18.04-12.62-30.06,2.63,7.29,4.99,14.35,7.75,21.27,1.24,3.12,3.27,5.93,4.94,8.88l-.07-.09Z"/>
  <path class="c" d="m676,416.94c9.4,3.4,17.19-1.12,25.22-5.38-4.12,8.02-13.53,11.26-23.44,8.28-.09-.14-.18-.27-.27-.41.12.07.33.22.35.2,2.69-3.27-1.92-1.29-1.91-2.65l.04-.05Z"/>
  <path class="c" d="m623.14,606.81c-2.2-8.25-4.21-15.78-6.22-23.31.46-.16.91-.33,1.37-.49.77,1.7,1.56,3.4,2.32,5.11,1.27,2.85.59,6.65,4.37,8.34.6.27.77,2.37.53,3.5-.45,2.05-1.35,4-2.37,6.85Z"/>
  <path class="c" d="m562.95,176.91c-.16,1.1-.31,2.2-.5,3.53-5.23-1.4-10.18-2.73-15.28-4.1,2.46-4.29,2.85-4.46,6.68-3.06,2.42.89,4.81,1.86,7.22,2.79,0,0-.15-.1-.15-.1l2.14,1.08-.11-.14Z"/>
  <path class="c" d="m547.92,166.36c-8.46-.56-12.7-7.25-18.22-12.07,6.07,4.02,12.15,8.05,18.22,12.07Z"/>
  <path class="c" d="m586.72,236.77c5.42,1.41,10.85,2.81,16.27,4.22-.09.37-.19.75-.28,1.12l-16.4-3.74c.14-.53.27-1.07.41-1.6Z"/>
  <path class="c" d="m608.75,552.79c1.77,3.95,3.13,7.01,4.58,10.24-.87.53-1.78,1.1-2.98,1.83-.51-3.82-1-7.53-1.6-12.07Z"/>
  <path class="c" d="m651.74,458.9c.94-1.13.44-3.96,3.29-2.83,1.24.49,2.46,1.04,3.62,1.68.19.11.02.87.02,1.33-1.32-.11-2.64-.26-3.96-.33-.95-.05-1.91,0-2.87,0l-.09.14Z"/>
  <path class="c" d="m300.9,521.97c.35-1.01.7-2.02,1.1-3.16,1.1.37,2.1.71,4.41,1.49-2.63.77-4.03,1.18-5.44,1.59l-.07.09Z"/>
  <path class="c" d="m412.07,95.07c1.04-1.79,2.08-3.58,3.13-5.36.45.33.9.66,1.35.99l-4.57,4.27s.1.1.1.1Z"/>
  <path class="c" d="m507.84,240.74c.62,1.17,1.25,2.35,1.87,3.52-.26.14-.52.27-.78.41-.59-1.19-1.19-2.38-1.78-3.57.23-.12.45-.24.68-.36Z"/>
  <path class="c" d="m336.93,181.87c-.55.81-1.1,1.62-1.66,2.44-.19-.18-.38-.35-.57-.53l2.33-1.8-.1-.1Z"/>
  <path class="c" d="m413.88,72.85c.26-.16.5-.38.78-.45.14-.04.35.19.53.29-.24.2-.46.47-.74.57-.12.04-.37-.26-.57-.42Z"/>
  <path class="c" d="m648.42,327.19v1.75s.05,0,.07,0v-1.75h-.07Z"/>
  <path class="c" d="m616.95,601.11c-.24-.54-.48-1.07-.73-1.61l.33-.11c.1.61.2,1.22.3,1.83l.1-.11Z"/>
  <path class="c" d="m198.65,890.22c.58.08,1.16.17.62.09.55.16.03,0-.5-.14l-.12.05Z"/>
  <path class="c" d="m618.17,387.75c-.05.25-.09.49-.14.74.18-.07.35-.14.53-.22-.15-.2-.31-.41-.46-.61l.07.09Z"/>
  <polygon class="c" points="397.55 80.11 397.55 79.71 397.46 80.09 397.55 80.11"/>
  <path class="c" d="m500.1,144.84c-.3-.03-.59-.05-.89-.08.26.06.52.13.78.19,0,0,.11-.11.11-.11Z"/>
  <path class="c" d="m399.96,74.92c-.13.4-.27.81-.42,1.29-.19-.49-.35-.89-.5-1.29l-.1.13c.38,0,.76,0,1.14,0l-.11-.13Z"/>
  <polygon class="c" points="510.54 247.04 510.55 246.65 510.46 247.03 510.54 247.04"/>
  <polygon class="c" points="24.3 984.56 23.9 984.38 23.85 984.6 24.3 984.56"/>
  <polygon class="c" points="594.93 273 595.13 273.09 594.97 272.97 594.93 273"/>
  <path class="c" d="m460.14,102.17c.09-.27.18-.55.26-.82-.13.24-.26.47-.38.71,0,0,.12.12.12.12Z"/>
  <path class="c" d="m462.86,99.87c-.03.25-.06.49-.08.74-.18-.08-.37-.15-.55-.23.25-.14.5-.28.75-.41,0,0-.11-.1-.11-.1Z"/>
  <polygon class="c" points="372.11 96.16 372.08 95.88 372.2 96.04 372.11 96.16"/>
  <polygon class="c" points="375.11 94.91 374.88 94.94 374.98 94.81 375.11 94.91"/>
  <polygon class="c" points="484.5 93.31 484.65 93.57 484.31 93.53 484.5 93.31"/>
  <polygon class="c" points="651.84 458.77 651.93 459.07 651.74 458.9 651.84 458.77"/>
  <path class="c" d="m825.06,627.14c.03-.1.06-.2.09-.3-.06.07-.12.13-.18.2,0,0,.09.1.09.1Z"/>
  <polygon class="c" points="152.61 671.36 152.59 671.09 152.51 671.39 152.61 671.36"/>
  <path class="c" d="m152.51,671.39c.16-.03.31-.05.47-.08.04,0,.07-.02.11-.02-.16.02-.31.04-.47.06,0,0-.1.04-.1.04Z"/>
  <polygon class="c" points="675.95 416.99 675.85 416.86 676 416.94 675.95 416.99"/>
  <path class="c" d="m500,144.95c.28.42.56.85.84,1.27,0,0,.09-.1.09-.1-.27-.43-.55-.85-.82-1.28,0,0-.11.11-.11.11Z"/>
  <polygon class="c" points="418.45 87.31 418.54 87.58 418.3 87.55 418.45 87.31"/>
  <polygon class="c" points="432.1 85.24 432.1 84.93 432.16 85.13 432.1 85.24"/>
  <path class="c" d="m515.99,145.98l.37.42c-.07-.05-.18-.09-.21-.15-.04-.11-.03-.25-.05-.38,0,0-.11.11-.11.11Z"/>
  <polygon class="c" points="557 147.89 557.13 147.9 556.92 147.98 557 147.89"/>
  <path class="c" d="m538.13,220.83c-.25.04-.51.07-.76.11.04-.21.09-.41.13-.62l.55.62s.08-.11.08-.11Z"/>
  <polygon class="c" points="484.85 73.89 485.06 73.88 484.74 73.85 484.85 73.89"/>
  <path class="c" d="m22.7,981.93c.1,0,.21-.01.31-.02-.07-.04-.15-.09-.22-.13,0,0-.09.15-.09.15Z"/>
  <path class="c" d="m22.79,981.78c0,.09,0,.19,0,.28-.03-.05-.06-.09-.09-.14,0,0,.09-.15.09-.15Z"/>
  <polygon class="c" points="674.36 1014.73 674.21 1014.84 674.26 1014.59 674.36 1014.73"/>
  <polygon class="c" points="300.97 521.88 300.9 522.12 300.9 521.97 300.97 521.88"/>
  <path class="d" d="m171.98,897.99c-.56.33-1.12.65-1.68.98-.02-.29-.04-.58-.07-.87.61,0,1.21.01,1.82.02,0,0-.07-.13-.07-.13Z"/>
  <path class="d" d="m51.82,908.47c-.25.17-.47.43-.72.47-.22.03-.47-.2-.7-.32.24-.23.45-.56.73-.64.17-.05.45.31.7.49Z"/>
  <path class="d" d="m28,947.99c.23-.32.46-.64.69-.96.1.24.21.49.31.73-.35.05-.71.1-1.06.14,0,0,.06.08.06.08Z"/>
  <path class="d" d="m31.9,981.38c-.11.19-.23.39-.34.6-.1-.11-.29-.24-.27-.32.05-.22.19-.42.3-.62.1.11.19.22.31.34Z"/>
  <path class="d" d="m367.04,596.97c-1.02.16-2.04.33-3.24.52.37,7.03,5.6,11.34,9.19,16.52,1.49,2.15,3.68,4.03,1.97,7.04l.08-.08c-.1,1.55-.2,3.1-.34,5.37-4.36-1.43-7.49-4.95-9.49-8.33-1.83-3.11-6.54-5.78-4.1-10.88.24-.5-2.3-2-2.97-3.33-3.63-7.17-7.07-14.43-10.57-21.66.39-.13.78-.26,1.18-.39-.19,1.04-.37,2.08-.56,3.11-.27.05-.53.1-.8.15-.39-1.04-.77-2.07-1.16-3.09.34-.15.39-.17.45-.2-.18,2.09-.37,4.17-.59,6.68-5.98-7.05-2.78-30.34,5.55-42.29.45,1.19.81,2.14,1.58,4.17,1.97-3.54,3.59-6.46,4.72-8.51,2.3-.92,4.01-1.36,5.46-2.25,1.25-.76,2.08-2.19,3.31-2.99.64-.41,2.05-.44,2.56,0,.52.44.78,1.96.42,2.52-1.8,2.76-3.86,5.35-5.82,8.01-1.19,1.62-2.71,3.16.17,4.79.61.34,1.03,1.95.79,2.75-3.03,9.82-2.71,19.67-.53,29.57.94,4.27,1.8,8.56,2.69,12.85l.07-.06Zm-2.51,13.95l-.05.38-.05-.38h.1Z"/>
  <path class="d" d="m390.06,551.12c7.4,14.31,10.54,29.58,12.38,45.18,3.57,30.27-.95,59.21-14.46,86.62-.84,1.71-2.5,3.02-3.78,4.52-.43-.25-.85-.51-1.28-.76,3.19-7.57,6.38-15.14,9.57-22.72-.3-.13-.61-.27-.91-.4-2.86,2.31-5.71,4.62-8.57,6.92-.42-.38-.85-.75-1.27-1.13,2.06-2.95,3.89-6.11,6.23-8.82,5.57-6.45,7.29-14.22,8.98-22.28,1.91-9.07-1.27-16.2-5.4-23.94-4.8-9.01-8.01-18.89-11.64-28.49-1.97-5.19-3.63-10.54-4.96-15.93-.61-2.48-.1-5.24-.1-7.87.45-.07.89-.14,1.34-.21,6.41,16.83,12.82,33.67,19.23,50.5.43-.12.86-.24,1.29-.37.95-20.6-4.95-40.52-6.64-60.83Z"/>
  <path class="d" d="m528.65,384.4c3.7-.46,7.31-1.11,8.64,3.54.59,2.04.92,4.65.15,6.49-3.8,9.05-11.46,14.3-19.83,18.52-1.74.88-4.12.61-6.2.64-3.46.04-6.92,0-10.37-.23-1.17-.08-2.75-.48-3.32-1.3-.56-.79-.41-2.48.06-3.48.68-1.47,1.77-2.83,2.94-3.96,7.37-7.11,14.72-14.27,23.91-19.09,1.21-.63,2.68-.77,4.03-1.13Z"/>
  <path class="d" d="m352.36,459.44c-2.13,5.19-4.06,11.35-7.11,16.9-2.89,5.25-7.26,4.67-10.04-.7-.68-1.32-1.33-2.7-2.25-3.83-4.62-5.66-4.66-11.72-2.03-18.22.98-2.43,2.06-5.08,2-7.6-.11-4.15,1.59-7.07,5.23-7.95,4.09-.98,7.79,1.33,9.35,4.96,2.06,4.79,3.03,10.05,4.85,16.45Z"/>
  <path class="d" d="m358.03,656.98c-.49.76-1.57,1.79-1.37,2.24,1.16,2.63,1.04,4.48-2.13,5.27-3.01.75-5.41,1.81-8.08-1.91-2.6-3.61-2.47-7.54-3.9-11.17-1.93-4.91-4.49-9.6-7.12-14.2-5.84-10.22-5.49-25.4,1.26-35.68,0,5.58.24,11.18-.05,16.75-.53,10.14,2.11,18.22,11.37,24.07,4.25,2.69,6.99,7.81,10.26,11.95.41.52-.18,1.82-.31,2.76l.09-.09Z"/>
  <path class="d" d="m332.26,270.54c6.55,12.11,12.33,23.33,10.77,38.18-5.78-4.39-12.76-6.77-15.18-12.92-3.21-8.19-2.05-16.72,4.41-25.26Z"/>
  <path class="d" d="m407.7,390.39c10.73,7.39,15.09,20.58,3.45,29.68-2.27,1.77-3.71,1.24-5.21-1.09-4.57-7.1-3.81-20.58,1.76-28.59Z"/>
  <path class="d" d="m388.59,452.22c-2.7-3.34-9.79-3.99-7.54-11.96,1.24.48,2.33.91,3.59,1.4.02-.42.33-1.36.06-2.09-1.55-4.15-3.65-8.15-4.77-12.4-.95-3.64-.88-7.56-1.13-11.36-.03-.42.85-1.32,1.18-1.26.86.16,2.03.52,2.37,1.17.99,1.9,1.62,3.97,2.56,6.41,3.67-1.92,5.37-.25,6.19,3.28,1.37,5.9,3.12,11.72,4.25,17.65.26,1.37-1.1,3.25-2.11,4.61-1.09,1.48-2.64,2.63-4.65,4.56Z"/>
  <path class="d" d="m405.21,534.89c7.6,8.22,10.24,35.48,3.89,39.12-.94-3.96-1.83-7.69-2.68-11.24-.16.73-.39,1.73-.61,2.73-3.78-9.9-2.81-19.68-.61-30.62Z"/>
  <path class="d" d="m328.59,669.65c1.13.33,2.77.74,4.37,1.28.88.3,1.9,1.37,2.49,1.14,5.81-2.19,9.19,2.67,9.75,5.85,1.19,6.74,7.06,10.73,8.26,17.1.17.91.4,1.81-.29,3.34-4.66-4.66-9.29-9.34-13.98-13.96-4.26-4.21-10.58-6.71-10.6-14.76Z"/>
  <path class="d" d="m354.99,429.59c4.5,5.92,8.34,12.12,7.41,20.08-.15,1.25-.59,2.7-1.4,3.58-1.03,1.12-2.66,2.47-3.9,2.35-.93-.09-2.01-2.24-2.41-3.64-1.19-4.1-2.54-8.25-2.92-12.46-.29-3.33.77-6.77,1.23-10.17.66.08,1.32.16,1.98.25Z"/>
  <path class="d" d="m445.85,476.02c4.06,1.93,7.77,14.35,4.98,20.74-3.06-1.76-6.23-3.38-9.16-5.35-3.01-2.02-3.44-9.42-.68-12.5,1.08-1.2,2.88-1.75,4.86-2.89Z"/>
  <path class="d" d="m418.81,393.07c-6.05-8.61-5.48-9.4,2.25-20.51,3.61,1.52,4.57,4.84,4.87,8.13.5,5.49-2.49,9.27-7.13,12.37Z"/>
  <path class="d" d="m449.83,581.2c-1.87,6.64-3.63,13.31-5.71,19.88-.31.99-2.09,1.51-3.19,2.25-.19-1.16-.67-2.37-.51-3.48,1.01-7.15,2-14.31,3.39-21.39.34-1.72,2.12-3.15,3.24-4.71.65,1.75,1.35,3.48,1.93,5.25.2.61.09,1.32.12,1.98.25.07.49.14.74.21Z"/>
  <path class="d" d="m346.41,143.33c-2.48-3.21-5.4-6.18-7.34-9.69-2.17-3.93.07-8.1,4.33-9.4,4.22-1.3,6.55.14,6.3,4.49-.26,4.67-1.21,9.3-1.86,13.95l-1.43.65Z"/>
  <path class="d" d="m510.23,384.66c-.76-7.88,5-14.31,10.74-13.55,1.28.17,3.27,1.04,3.47,1.93.3,1.31-.25,3.62-1.24,4.27-3.9,2.57-8.12,4.66-12.98,7.35Z"/>
  <path class="d" d="m599.64,413.17c-.33-.5-.66-1-1.11-1.69-.32.62-.67,1.31-1.13,2.2-2.88-7.17-3.77-14.17-.93-21.26.47-1.17,1.77-2,2.68-2.99.56,1.24,1.58,2.46,1.61,3.71.16,6.57.08,13.15.08,19.72-.4.1-.8.2-1.2.3Z"/>
  <path class="d" d="m321.6,265.16c-2.11-9.28-1.69-17.31.81-25.78,4.98,4.54,4.62,16.3-.81,25.78Z"/>
  <path class="d" d="m338.43,375.89c-2.05-7.02-3.04-13.85-1.54-21.4,6.79,7.08,7.65,17.9,1.54,21.4Z"/>
  <path class="d" d="m324.78,531.93c-6.67-5.88-9.83-15.61-6.01-22.06,2.58,7.79,4.85,14.66,7.12,21.54l-1.12.52Z"/>
  <path class="d" d="m350.96,348.25c1.29,7.13.65,12.77-4.94,17.59,0-3.98-.46-8.05.2-11.92.32-1.88,2.74-3.39,4.74-5.68Z"/>
  <path class="d" d="m340.41,342.49c-4.5-4.12-3.38-8.92,2.97-12.7,2.96,3.16,2.15,6.66-2.97,12.7Z"/>
  <path class="d" d="m493.36,385.81c3.81-2.52,6.87-4.66,10.06-6.57.62-.37,1.76.14,2.66.25-.22.86-.16,2.15-.71,2.52-3.32,2.22-6.28,5.6-12.02,3.81Z"/>
  <path class="d" d="m318.08,256.02c-.45,5.89,4.43,11.49-.4,17.61-.33-5.85-.66-11.71-.99-17.56.47-.02.93-.03,1.4-.05Z"/>
  <path class="d" d="m318,495.02c1.47.68,2.94,1.36,5.07,2.35q-5.51,1.97-5.01-2.4s-.06.05-.06.05Z"/>
  <path class="d" d="m623.15,345.7v-2.36h.66v2.36h-.66Z"/>
  <path class="d" d="m481.99,130.08l.75.6c-.37.15-.73.35-1.12.41-.1.01-.27-.44-.4-.68.25-.11.51-.21.77-.32Z"/>
  <path class="d" d="m502.09,92.11l-1.62.7c.01-.26.02-.52.04-.78.55.06,1.1.13,1.65.19l-.07-.11Z"/>
  <path class="d" d="m351.08,347.2c-.26-.15-.5-.29-.75-.43.26-.28.52-.56.78-.83l.62.64c-.22.21-.44.42-.66.63Z"/>
  <path class="d" d="m438.63,100.3c-.21.19-.38.46-.58.49-.16.02-.35-.27-.53-.42.11-.11.23-.31.33-.3.25.02.49.14.79.23Z"/>
  <path class="d" d="m423.06,101.08c-.47.2-.95.39-1.42.59-.05-.15-.11-.29-.16-.44.56-.01,1.11-.02,1.67-.03l-.08-.12Z"/>
  <path class="d" d="m459.85,102.88c-.07.32-.14.64-.22.96-.15-.05-.3-.1-.44-.15.26-.24.51-.49.76-.73l-.1-.08Z"/>
  <path class="d" d="m449.03,106.04c-.27.17-.54.35-.81.52-.05-.14-.1-.28-.15-.41.34,0,.68,0,1.03,0,0,0-.08-.11-.08-.11Z"/>
  <path class="d" d="m709.96,591.96c-.16.31-.32.61-.47.92-.09-.11-.19-.22-.28-.32.29-.16.58-.32.87-.49l-.11-.11Z"/>
  <path class="d" d="m708.52,594.78c-.07-.04-.17-.1-.26-.16.1-.16.2-.31.3-.47.09.11.26.23.25.33,0,.1-.19.2-.3.3Z"/>
  <path class="d" d="m366.97,597.03c.31.18.61.36.92.54-.2.16-.4.32-.6.49l-.25-1.09-.07.06Z"/>
  <polygon class="d" points="336.78 598.58 336.51 598.72 336.55 598.38 336.78 598.58"/>
  <path class="d" d="m393.88,126.15c.23.03.46.07.69.1-.04.14-.08.28-.13.42-.16-.21-.31-.43-.47-.64l-.1.12Z"/>
  <path class="d" d="m368.22,599.23c.12,0,.28-.05.34.01.09.08.11.24.16.36-.23-.01-.46-.02-.68-.03.06-.12.12-.24.18-.34Z"/>
  <path class="d" d="m485.22,132.67c-.35.15-.69.29-1.04.44-.06-.26-.12-.52-.18-.79.38.16.76.32,1.14.48,0,0,.07-.13.07-.13Z"/>
  <path class="d" d="m374.96,621.05c.33.16.65.32.98.47-.11.12-.22.24-.34.36-.19-.31-.37-.61-.56-.92l-.08.08Z"/>
  <path class="d" d="m357.94,657.07c.33.15.65.3.98.45-.1.13-.21.25-.31.38-.2-.31-.39-.62-.59-.92l-.09.09Z"/>
  <path class="d" d="m325.65,668.81c-.19-.1-.4-.22-.6-.33.1-.11.23-.32.31-.3.22.05.43.19.64.29-.11.1-.21.21-.35.34Z"/>
  <path class="d" d="m300.64,403.86c-.21-.12-.43-.24-.64-.36.11-.11.25-.33.33-.31.24.05.45.2.67.31-.11.11-.22.22-.36.36Z"/>
  <path class="d" d="m306.81,326.37c-.06.11-.11.23-.17.34-.16-.11-.33-.23-.49-.34.11-.11.22-.23.33-.34.11.11.22.23.33.34Z"/>
  <path class="d" d="m642.39,323.24c.1,0,.23-.04.29,0,.08.07.1.21.14.31-.2,0-.39-.01-.59-.02.05-.1.11-.21.16-.3Z"/>
  <path class="d" d="m931,911.99c-.35-.17-.69-.34-1.04-.5.23-.15.45-.29.68-.44.09.34.18.68.27,1.02l.09-.08Z"/>
  <path class="d" d="m164.92,686.44c1.78.31,3.46.11,3.92.76,10.7,15.12,21.28,30.33,32.21,46.02-3.79-.61-30.07-35.13-36.13-46.78Z"/>
  <path class="d" d="m202.76,738.2c-1.13-1.29-2.26-2.58-3.39-3.87.39-.34.78-.68,1.17-1.01.99,1.36,1.99,2.73,2.98,4.09-.25.26-.51.53-.76.79Z"/>
  <path class="d" d="m203.52,737.42c.82,1.2,1.65,2.4,2.47,3.59l.11-.06c-1.11-.92-2.23-1.83-3.34-2.75.25-.26.51-.53.76-.79Z"/>
  <path class="d" d="m205.99,741.01c.29.43.57.86.86,1.29-.26.03-.52.06-.78.1.01-.48.02-.96.04-1.45l-.11.06Z"/>
  <path class="d" d="m256.94,840.96c-.14.27-.29.54-.43.81-.12-.08-.25-.17-.37-.25l.87-.5s-.07-.06-.07-.06Z"/>
  <path class="d" d="m951.35,983.83c-21.69,2.27-43.39-.28-65.09-.17,0-.4,0-.81,0-1.21h65.11c0,.46-.01.92-.02,1.38Z"/>
  <path class="d" d="m496.99,266.49c.74,1.04,1.63,1.94,1.48,2.17-.52.82-1.4,1.41-2.14,2.09-.41-.6-1.23-1.29-1.13-1.79.15-.76.95-1.38,1.78-2.47Z"/>
  <path class="d" d="m563.06,177.05l-2.14-1.08,2.14,1.08Z"/>
  <path class="d" d="m559.14,170.64c.12-.21.24-.43.36-.64.11.11.33.25.31.33-.05.24-.2.45-.31.67-.11-.11-.22-.22-.36-.36Z"/>
  <path class="d" d="m425.99,66.99c.16-.23.33-.45.49-.68.08.21.16.43.24.64-.27-.02-.54-.05-.82-.07,0,0,.09.11.09.11Z"/>
  <path class="d" d="m400.07,75.05c-.38,0-.76,0-1.14,0,.1-.24.19-.48.29-.72.28.24.56.47.85.71Z"/>
  <polygon class="c" points="364.54 610.91 364.43 610.91 364.48 611.29 364.54 610.91"/>
</svg>